  0
SECTION
  2
HEADER
  9
$ACADVER
  1
AC1021
  9
$ACADMAINTVER
 70
    25
  9
$DWGCODEPAGE
  3
ANSI_1251
  9
$INSBASE
 10
0.0
 20
0.0
 30
0.0
  9
$EXTMIN
 10
1.000000000000000E+20
 20
1.000000000000000E+20
 30
1.000000000000000E+20
  9
$EXTMAX
 10
-1.000000000000000E+20
 20
-1.000000000000000E+20
 30
-1.000000000000000E+20
  9
$LIMMIN
 10
0.0
 20
0.0
  9
$LIMMAX
 10
420.0
 20
297.0
  9
$ORTHOMODE
 70
     0
  9
$REGENMODE
 70
     1
  9
$FILLMODE
 70
     1
  9
$QTEXTMODE
 70
     0
  9
$MIRRTEXT
 70
     1
  9
$LTSCALE
 40
1.0
  9
$ATTMODE
 70
     1
  9
$TEXTSIZE
 40
2.5
  9
$TRACEWID
 40
1.0
  9
$TEXTSTYLE
  7
Standard
  9
$CLAYER
  8
0
  9
$CELTYPE
  6
ByLayer
  9
$CECOLOR
 62
   256
  9
$CELTSCALE
 40
1.0
  9
$DISPSILH
 70
     0
  9
$DIMSCALE
 40
1.0
  9
$DIMASZ
 40
2.5
  9
$DIMEXO
 40
0.625
  9
$DIMDLI
 40
3.75
  9
$DIMRND
 40
0.0
  9
$DIMDLE
 40
0.0
  9
$DIMEXE
 40
1.25
  9
$DIMTP
 40
0.0
  9
$DIMTM
 40
0.0
  9
$DIMTXT
 40
2.5
  9
$DIMCEN
 40
2.5
  9
$DIMTSZ
 40
0.0
  9
$DIMTOL
 70
     0
  9
$DIMLIM
 70
     0
  9
$DIMTIH
 70
     0
  9
$DIMTOH
 70
     0
  9
$DIMSE1
 70
     0
  9
$DIMSE2
 70
     0
  9
$DIMTAD
 70
     1
  9
$DIMZIN
 70
     8
  9
$DIMBLK
  1

  9
$DIMASO
 70
     1
  9
$DIMSHO
 70
     1
  9
$DIMPOST
  1

  9
$DIMAPOST
  1

  9
$DIMALT
 70
     0
  9
$DIMALTD
 70
     3
  9
$DIMALTF
 40
0.03937007874016
  9
$DIMLFAC
 40
1.0
  9
$DIMTOFL
 70
     1
  9
$DIMTVP
 40
0.0
  9
$DIMTIX
 70
     0
  9
$DIMSOXD
 70
     0
  9
$DIMSAH
 70
     0
  9
$DIMBLK1
  1

  9
$DIMBLK2
  1

  9
$DIMSTYLE
  2
ISO-25
  9
$DIMCLRD
 70
     0
  9
$DIMCLRE
 70
     0
  9
$DIMCLRT
 70
     0
  9
$DIMTFAC
 40
1.0
  9
$DIMGAP
 40
0.625
  9
$DIMJUST
 70
     0
  9
$DIMSD1
 70
     0
  9
$DIMSD2
 70
     0
  9
$DIMTOLJ
 70
     0
  9
$DIMTZIN
 70
     8
  9
$DIMALTZ
 70
     0
  9
$DIMALTTZ
 70
     0
  9
$DIMUPT
 70
     0
  9
$DIMDEC
 70
     2
  9
$DIMTDEC
 70
     2
  9
$DIMALTU
 70
     2
  9
$DIMALTTD
 70
     3
  9
$DIMTXSTY
  7
Standard
  9
$DIMAUNIT
 70
     0
  9
$DIMADEC
 70
     0
  9
$DIMALTRND
 40
0.0
  9
$DIMAZIN
 70
     0
  9
$DIMDSEP
 70
    44
  9
$DIMATFIT
 70
     3
  9
$DIMFRAC
 70
     0
  9
$DIMLDRBLK
  1

  9
$DIMLUNIT
 70
     2
  9
$DIMLWD
 70
    -2
  9
$DIMLWE
 70
    -2
  9
$DIMTMOVE
 70
     0
  9
$DIMFXL
 40
1.0
  9
$DIMFXLON
 70
     0
  9
$DIMJOGANG
 40
0.7853981633974483
  9
$DIMTFILL
 70
     0
  9
$DIMTFILLCLR
 70
     0
  9
$DIMARCSYM
 70
     0
  9
$DIMLTYPE
  6

  9
$DIMLTEX1
  6

  9
$DIMLTEX2
  6

  9
$LUNITS
 70
     2
  9
$LUPREC
 70
     4
  9
$SKETCHINC
 40
1.0
  9
$FILLETRAD
 40
10.0
  9
$AUNITS
 70
     0
  9
$AUPREC
 70
     0
  9
$MENU
  1
.
  9
$ELEVATION
 40
0.0
  9
$PELEVATION
 40
0.0
  9
$THICKNESS
 40
0.0
  9
$LIMCHECK
 70
     0
  9
$CHAMFERA
 40
10.0
  9
$CHAMFERB
 40
10.0
  9
$CHAMFERC
 40
20.0
  9
$CHAMFERD
 40
0.0
  9
$SKPOLY
 70
     0
  9
$TDCREATE
 40
2455930.052978334
  9
$TDUCREATE
 40
2455929.802978334
  9
$TDUPDATE
 40
2455930.052978345
  9
$TDUUPDATE
 40
2455929.802978345
  9
$TDINDWG
 40
0.0000000116
  9
$TDUSRTIMER
 40
0.0000000116
  9
$USRTIMER
 70
     1
  9
$ANGBASE
 50
0.0
  9
$ANGDIR
 70
     0
  9
$PDMODE
 70
     0
  9
$PDSIZE
 40
0.0
  9
$PLINEWID
 40
0.0
  9
$SPLFRAME
 70
     0
  9
$SPLINETYPE
 70
     6
  9
$SPLINESEGS
 70
     8
  9
$HANDSEED
  5
1F9
  9
$SURFTAB1
 70
     6
  9
$SURFTAB2
 70
     6
  9
$SURFTYPE
 70
     6
  9
$SURFU
 70
     6
  9
$SURFV
 70
     6
  9
$UCSBASE
  2

  9
$UCSNAME
  2

  9
$UCSORG
 10
0.0
 20
0.0
 30
0.0
  9
$UCSXDIR
 10
1.0
 20
0.0
 30
0.0
  9
$UCSYDIR
 10
0.0
 20
1.0
 30
0.0
  9
$UCSORTHOREF
  2

  9
$UCSORTHOVIEW
 70
     0
  9
$UCSORGTOP
 10
0.0
 20
0.0
 30
0.0
  9
$UCSORGBOTTOM
 10
0.0
 20
0.0
 30
0.0
  9
$UCSORGLEFT
 10
0.0
 20
0.0
 30
0.0
  9
$UCSORGRIGHT
 10
0.0
 20
0.0
 30
0.0
  9
$UCSORGFRONT
 10
0.0
 20
0.0
 30
0.0
  9
$UCSORGBACK
 10
0.0
 20
0.0
 30
0.0
  9
$PUCSBASE
  2

  9
$PUCSNAME
  2

  9
$PUCSORG
 10
0.0
 20
0.0
 30
0.0
  9
$PUCSXDIR
 10
1.0
 20
0.0
 30
0.0
  9
$PUCSYDIR
 10
0.0
 20
1.0
 30
0.0
  9
$PUCSORTHOREF
  2

  9
$PUCSORTHOVIEW
 70
     0
  9
$PUCSORGTOP
 10
0.0
 20
0.0
 30
0.0
  9
$PUCSORGBOTTOM
 10
0.0
 20
0.0
 30
0.0
  9
$PUCSORGLEFT
 10
0.0
 20
0.0
 30
0.0
  9
$PUCSORGRIGHT
 10
0.0
 20
0.0
 30
0.0
  9
$PUCSORGFRONT
 10
0.0
 20
0.0
 30
0.0
  9
$PUCSORGBACK
 10
0.0
 20
0.0
 30
0.0
  9
$USERI1
 70
     0
  9
$USERI2
 70
     0
  9
$USERI3
 70
     0
  9
$USERI4
 70
     0
  9
$USERI5
 70
     0
  9
$USERR1
 40
0.0
  9
$USERR2
 40
0.0
  9
$USERR3
 40
0.0
  9
$USERR4
 40
0.0
  9
$USERR5
 40
0.0
  9
$WORLDVIEW
 70
     1
  9
$SHADEDGE
 70
     3
  9
$SHADEDIF
 70
    70
  9
$TILEMODE
 70
     1
  9
$MAXACTVP
 70
    64
  9
$PINSBASE
 10
0.0
 20
0.0
 30
0.0
  9
$PLIMCHECK
 70
     0
  9
$PEXTMIN
 10
1.000000000000000E+20
 20
1.000000000000000E+20
 30
1.000000000000000E+20
  9
$PEXTMAX
 10
-1.000000000000000E+20
 20
-1.000000000000000E+20
 30
-1.000000000000000E+20
  9
$PLIMMIN
 10
0.0
 20
0.0
  9
$PLIMMAX
 10
420.0
 20
297.0
  9
$UNITMODE
 70
     0
  9
$VISRETAIN
 70
     1
  9
$PLINEGEN
 70
     0
  9
$PSLTSCALE
 70
     1
  9
$TREEDEPTH
 70
  3020
  9
$CMLSTYLE
  2
Standard
  9
$CMLJUST
 70
     0
  9
$CMLSCALE
 40
20.0
  9
$PROXYGRAPHICS
 70
     1
  9
$MEASUREMENT
 70
     1
  9
$CELWEIGHT
370
    -1
  9
$ENDCAPS
280
     0
  9
$JOINSTYLE
280
     0
  9
$LWDISPLAY
290
     0
  9
$INSUNITS
 70
     4
  9
$HYPERLINKBASE
  1

  9
$STYLESHEET
  1

  9
$XEDIT
290
     1
  9
$CEPSNTYPE
380
     0
  9
$PSTYLEMODE
290
     1
  9
$FINGERPRINTGUID
  2
{03C4DFF4-2498-4D4B-A610-0171893CC8EE}
  9
$VERSIONGUID
  2
{FAEB1C32-E019-11D5-929B-00C0DF256EC4}
  9
$EXTNAMES
290
     1
  9
$PSVPSCALE
 40
0.0
  9
$OLESTARTUP
290
     0
  9
$SORTENTS
280
   127
  9
$INDEXCTL
280
     0
  9
$HIDETEXT
280
     1
  9
$XCLIPFRAME
290
     0
  9
$HALOGAP
280
     0
  9
$OBSCOLOR
 70
   257
  9
$OBSLTYPE
280
     0
  9
$INTERSECTIONDISPLAY
280
     0
  9
$INTERSECTIONCOLOR
 70
   257
  9
$DIMASSOC
280
     2
  9
$PROJECTNAME
  1

  9
$CAMERADISPLAY
290
     0
  9
$LENSLENGTH
 40
50.0
  9
$CAMERAHEIGHT
 40
0.0
  9
$STEPSPERSEC
 40
2.0
  9
$STEPSIZE
 40
6.0
  9
$3DDWFPREC
 40
2.0
  9
$PSOLWIDTH
 40
5.0
  9
$PSOLHEIGHT
 40
80.0
  9
$LOFTANG1
 40
1.570796326794897
  9
$LOFTANG2
 40
1.570796326794897
  9
$LOFTMAG1
 40
0.0
  9
$LOFTMAG2
 40
0.0
  9
$LOFTPARAM
 70
     7
  9
$LOFTNORMALS
280
     1
  9
$LATITUDE
 40
37.795
  9
$LONGITUDE
 40
-122.394
  9
$NORTHDIRECTION
 40
0.0
  9
$TIMEZONE
 70
 -8000
  9
$LIGHTGLYPHDISPLAY
280
     1
  9
$TILEMODELIGHTSYNCH
280
     1
  9
$SOLIDHIST
280
     1
  9
$SHOWHIST
280
     1
  9
$DWFFRAME
280
     2
  9
$DGNFRAME
280
     2
  9
$REALWORLDSCALE
290
     1
  9
$INTERFERECOLOR
 62
   256
  9
$CSHADOW
280
     0
  9
$SHADOWPLANELOCATION
 40
0.0
  0
ENDSEC
  0
SECTION
  2
CLASSES
  0
CLASS
  1
ACDBDICTIONARYWDFLT
  2
AcDbDictionaryWithDefault
  3
ObjectDBX Classes
 90
        0
 91
        3
280
     0
281
     0
  0
CLASS
  1
VISUALSTYLE
  2
AcDbVisualStyle
  3
ObjectDBX Classes
 90
     4095
 91
        3
280
     0
281
     0
  0
CLASS
  1
SCALE
  2
AcDbScale
  3
ObjectDBX Classes
 90
     1153
 91
        3
280
     0
281
     0
  0
ENDSEC
  0
SECTION
  2
TABLES
  0
TABLE
  2
VPORT
  5
8
330
0
100
AcDbSymbolTable
 70
     1
  0
VPORT
  5
29
330
8
100
AcDbSymbolTableRecord
100
AcDbViewportTableRecord
  2
*Active
 70
     0
 10
0.0
 20
0.0
 11
1.0
 21
1.0
 12
344.1869158878504
 22
148.5
 13
0.0
 23
0.0
 14
10.0
 24
10.0
 15
10.0
 25
10.0
 16
0.0
 26
0.0
 36
1.0
 17
0.0
 27
0.0
 37
0.0
 40
297.0
 41
1.972972972850329
 42
50.0
 43
0.0
 44
0.0
 50
0.0
 51
0.0
 71
     0
 72
   100
 73
     1
 74
     3
 75
     0
 76
     0
 77
     0
 78
     0
281
     0
 65
     1
110
0.0
120
0.0
130
0.0
111
1.0
121
0.0
131
0.0
112
0.0
122
1.0
132
0.0
 79
     0
146
0.0
 60
     3
 61
     5
292
     1
282
     1
141
0.0
142
0.0
 63
   256
  0
ENDTAB
  0
TABLE
  2
LTYPE
  5
5
330
0
100
AcDbSymbolTable
 70
     6
  0
LTYPE
  5
14
330
5
100
AcDbSymbolTableRecord
100
AcDbLinetypeTableRecord
  2
ByBlock
 70
     0
  3

 72
    65
 73
     0
 40
0.0
  0
LTYPE
  5
15
330
5
100
AcDbSymbolTableRecord
100
AcDbLinetypeTableRecord
  2
ByLayer
 70
     0
  3

 72
    65
 73
     0
 40
0.0
  0
LTYPE
  5
16
330
5
100
AcDbSymbolTableRecord
100
AcDbLinetypeTableRecord
  2
Continuous
 70
     0
  3
Solid line
 72
    65
 73
     0
 40
0.0
  0
LTYPE
  5
61
330
5
100
AcDbSymbolTableRecord
100
AcDbLinetypeTableRecord
  2
K5LT_THIN
 70
     0
  3

 72
    65
 73
     0
 40
0.0
  0
LTYPE
  5
BD
330
5
100
AcDbSymbolTableRecord
100
AcDbLinetypeTableRecord
  2
K5LT32770
 70
     0
  3

 72
    65
 73
     0
 40
0.0
  0
LTYPE
  5
12D
330
5
100
AcDbSymbolTableRecord
100
AcDbLinetypeTableRecord
  2
K5LT32768
 70
     0
  3

 72
    65
 73
     0
 40
0.0
  0
LTYPE
  5
1DB
330
5
100
AcDbSymbolTableRecord
100
AcDbLinetypeTableRecord
  2
K5LT_BASIC
 70
     0
  3

 72
    65
 73
     0
 40
0.0
  0
LTYPE
  5
1E3
330
5
100
AcDbSymbolTableRecord
100
AcDbLinetypeTableRecord
  2
K5LT32771
 70
     0
  3

 72
    65
 73
     0
 40
0.0
  0
ENDTAB
  0
TABLE
  2
LAYER
  5
2
330
0
100
AcDbSymbolTable
 70
     3
  0
LAYER
  5
10
330
2
100
AcDbSymbolTableRecord
100
AcDbLayerTableRecord
  2
0
 70
     0
 62
     7
  6
Continuous
370
    -3
390
F
347
0
  0
LAYER
  5
5E
330
2
100
AcDbSymbolTableRecord
100
AcDbLayerTableRecord
  2
0 (1)
 70
     0
 62
     7
  6
Continuous
370
    -3
390
F
347
0
  0
LAYER
  5
5F
330
2
100
AcDbSymbolTableRecord
100
AcDbLayerTableRecord
  2
0 (1) (1)
 70
     0
 62
     7
  6
Continuous
370
    -3
390
F
347
0
  0
ENDTAB
  0
TABLE
  2
STYLE
  5
3
330
0
100
AcDbSymbolTable
 70
     1
  0
STYLE
  5
11
330
3
100
AcDbSymbolTableRecord
100
AcDbTextStyleTableRecord
  2
Standard
 70
     0
 40
0.0
 41
1.0
 50
0.0
 71
     0
 42
2.5
  3
txt
  4

  0
ENDTAB
  0
TABLE
  2
VIEW
  5
6
330
0
100
AcDbSymbolTable
 70
     0
  0
ENDTAB
  0
TABLE
  2
UCS
  5
7
330
0
100
AcDbSymbolTable
 70
     0
  0
ENDTAB
  0
TABLE
  2
APPID
  5
9
330
0
100
AcDbSymbolTable
 70
     2
  0
APPID
  5
12
330
9
100
AcDbSymbolTableRecord
100
AcDbRegAppTableRecord
  2
ACAD
 70
     0
  0
APPID
  5
5D
330
9
100
AcDbSymbolTableRecord
100
AcDbRegAppTableRecord
  2
KOMPAS
 70
     0
  0
ENDTAB
  0
TABLE
  2
DIMSTYLE
  5
A
330
0
100
AcDbSymbolTable
 70
     1
100
AcDbDimStyleTable
  0
DIMSTYLE
105
27
330
A
100
AcDbSymbolTableRecord
100
AcDbDimStyleTableRecord
  2
ISO-25
 70
     0
 41
2.5
 42
0.625
 43
3.75
 44
1.25
 73
     0
 74
     0
 77
     1
 78
     8
140
2.5
141
2.5
143
0.03937007874016
147
0.625
171
     3
172
     1
271
     2
272
     2
274
     3
278
    44
283
     0
284
     8
340
11
  0
ENDTAB
  0
TABLE
  2
BLOCK_RECORD
  5
1
330
0
100
AcDbSymbolTable
 70
    14
  0
BLOCK_RECORD
  5
1F
330
1
100
AcDbSymbolTableRecord
100
AcDbBlockTableRecord
  2
*Model_Space
340
22
 70
     0
280
     1
281
     0
  0
BLOCK_RECORD
  5
1B
330
1
100
AcDbSymbolTableRecord
100
AcDbBlockTableRecord
  2
*Paper_Space
340
1E
 70
     0
280
     1
281
     0
  0
BLOCK_RECORD
  5
23
330
1
100
AcDbSymbolTableRecord
100
AcDbBlockTableRecord
  2
*Paper_Space0
340
26
 70
     0
280
     1
281
     0
  0
BLOCK_RECORD
  5
60
330
1
100
AcDbSymbolTableRecord
100
AcDbBlockTableRecord
  2
KDIMARROW_00
340
0
 70
     0
280
     1
281
     0
  0
BLOCK_RECORD
  5
65
330
1
100
AcDbSymbolTableRecord
100
AcDbBlockTableRecord
  2
KDIMARROW_01
340
0
 70
     0
280
     1
281
     0
  0
BLOCK_RECORD
  5
6E
330
1
100
AcDbSymbolTableRecord
100
AcDbBlockTableRecord
  2
KDIMARROW_02
340
0
 70
     0
280
     1
281
     0
  0
BLOCK_RECORD
  5
78
330
1
100
AcDbSymbolTableRecord
100
AcDbBlockTableRecord
  2
KDIMARROW_03
340
0
 70
     0
280
     1
281
     0
  0
BLOCK_RECORD
  5
7E
330
1
100
AcDbSymbolTableRecord
100
AcDbBlockTableRecord
  2
KDIMARROW_04
340
0
 70
     0
280
     1
281
     0
  0
BLOCK_RECORD
  5
84
330
1
100
AcDbSymbolTableRecord
100
AcDbBlockTableRecord
  2
KDIMARROW_05
340
0
 70
     0
280
     1
281
     0
  0
BLOCK_RECORD
  5
8D
330
1
100
AcDbSymbolTableRecord
100
AcDbBlockTableRecord
  2
KDIMARROW_06
340
0
 70
     0
280
     1
281
     0
  0
BLOCK_RECORD
  5
97
330
1
100
AcDbSymbolTableRecord
100
AcDbBlockTableRecord
  2
KDIMARROW_07
340
0
 70
     0
280
     1
281
     0
  0
BLOCK_RECORD
  5
9D
330
1
100
AcDbSymbolTableRecord
100
AcDbBlockTableRecord
  2
KDIMARROW_08
340
0
 70
     0
280
     1
281
     0
  0
BLOCK_RECORD
  5
A4
330
1
100
AcDbSymbolTableRecord
100
AcDbBlockTableRecord
  2
KDIMARROW_09
340
0
 70
     0
280
     1
281
     0
  0
BLOCK_RECORD
  5
AA
330
1
100
AcDbSymbolTableRecord
100
AcDbBlockTableRecord
  2
KDIMARROW_10
340
0
 70
     0
280
     1
281
     0
  0
BLOCK_RECORD
  5
B1
330
1
100
AcDbSymbolTableRecord
100
AcDbBlockTableRecord
  2
KDIMARROW_11
340
0
 70
     0
280
     1
281
     0
  0
BLOCK_RECORD
  5
B7
330
1
100
AcDbSymbolTableRecord
100
AcDbBlockTableRecord
  2
KDIMARROW_12
340
0
 70
     0
280
     1
281
     0
  0
ENDTAB
  0
ENDSEC
  0
SECTION
  2
BLOCKS
  0
BLOCK
  5
20
330
1F
100
AcDbEntity
  8
0
100
AcDbBlockBegin
  2
*Model_Space
 70
     0
 10
0.0
 20
0.0
 30
0.0
  3
*Model_Space
  1

  0
ENDBLK
  5
21
330
1F
100
AcDbEntity
  8
0
100
AcDbBlockEnd
  0
BLOCK
  5
1C
330
1B
100
AcDbEntity
 67
     1
  8
0
100
AcDbBlockBegin
  2
*Paper_Space
 70
     0
 10
0.0
 20
0.0
 30
0.0
  3
*Paper_Space
  1

  0
ENDBLK
  5
1D
330
1B
100
AcDbEntity
 67
     1
  8
0
100
AcDbBlockEnd
  0
BLOCK
  5
24
330
23
100
AcDbEntity
  8
0
100
AcDbBlockBegin
  2
*Paper_Space0
 70
     0
 10
0.0
 20
0.0
 30
0.0
  3
*Paper_Space0
  1

  0
ENDBLK
  5
25
330
23
100
AcDbEntity
  8
0
100
AcDbBlockEnd
  0
BLOCK
  5
63
330
60
100
AcDbEntity
  8
0
100
AcDbBlockBegin
  2
KDIMARROW_00
 70
     0
 10
0.0
 20
0.0
 30
0.0
  3
KDIMARROW_00
  1

  0
LINE
  5
62
330
60
100
AcDbEntity
  8
0 (1) (1)
  6
K5LT_THIN
 62
     0
370
    18
100
AcDbLine
 10
0.0
 20
0.0
 30
0.0
 11
-1.0
 21
0.0
 31
0.0
  0
ENDBLK
  5
64
330
60
100
AcDbEntity
  8
0
100
AcDbBlockEnd
  0
BLOCK
  5
6C
330
65
100
AcDbEntity
  8
0
100
AcDbBlockBegin
  2
KDIMARROW_01
 70
     0
 10
0.0
 20
0.0
 30
0.0
  3
KDIMARROW_01
  1

  0
LINE
  5
66
330
65
100
AcDbEntity
  8
0
  6
K5LT_THIN
 62
     0
370
    18
100
AcDbLine
 10
0.0
 20
0.0
 30
0.0
 11
-5.000000000000002
 21
-0.6582624912261958
 31
0.0
  0
LINE
  5
67
330
65
100
AcDbEntity
  8
0
  6
K5LT_THIN
 62
     0
370
    18
100
AcDbLine
 10
-5.0
 20
-0.6582624912261956
 30
0.0
 11
-4.5
 21
0.0000000000000004
 31
0.0
  0
LINE
  5
68
330
65
100
AcDbEntity
  8
0
  6
K5LT_THIN
 62
     0
370
    18
100
AcDbLine
 10
-4.5
 20
0.0000000000000006
 30
0.0
 11
-5.0
 21
0.658262491226197
 31
0.0
  0
LINE
  5
69
330
65
100
AcDbEntity
  8
0
  6
K5LT_THIN
 62
     0
370
    18
100
AcDbLine
 10
-5.0
 20
0.658262491226197
 30
0.0
 11
0.0000000000000018
 21
0.0
 31
0.0
  0
HATCH
  5
6A
330
65
100
AcDbEntity
  8
0
 62
     0
100
AcDbHatch
 10
0.0
 20
0.0
 30
0.0
210
0.0
220
0.0
230
1.0
  2
SOLID
 70
     1
 71
     0
 91
        1
 92
        1
 93
        4
 72
     1
 10
0.0000000000000018
 20
0.0
 11
-5.0
 21
0.658262491226197
 72
     1
 10
-5.0
 20
0.658262491226197
 11
-4.5
 21
0.0000000000000006
 72
     1
 10
-4.5
 20
0.0000000000000004
 11
-5.0
 21
-0.6582624912261956
 72
     1
 10
-5.000000000000002
 20
-0.6582624912261958
 11
0.0
 21
0.0
 97
        0
 75
     0
 76
     1
 98
        0
  0
LINE
  5
6B
330
65
100
AcDbEntity
  8
0 (1) (1)
  6
K5LT_THIN
 62
     0
370
    18
100
AcDbLine
 10
0.0
 20
0.0
 30
0.0
 11
-1.0
 21
0.0
 31
0.0
  0
ENDBLK
  5
6D
330
65
100
AcDbEntity
  8
0
100
AcDbBlockEnd
  0
BLOCK
  5
76
330
6E
100
AcDbEntity
  8
0
100
AcDbBlockBegin
  2
KDIMARROW_02
 70
     0
 10
0.0
 20
0.0
 30
0.0
  3
KDIMARROW_02
  1

  0
LINE
  5
6F
330
6E
100
AcDbEntity
  8
0
  6
K5LT_THIN
 62
     0
370
    18
100
AcDbLine
 10
0.0
 20
0.0
 30
0.0
 11
5.000000000000002
 21
-0.658262491226197
 31
0.0
  0
LINE
  5
70
330
6E
100
AcDbEntity
  8
0
  6
K5LT_THIN
 62
     0
370
    18
100
AcDbLine
 10
5.0
 20
-0.658262491226197
 30
0.0
 11
4.5
 21
-0.0000000000000006
 31
0.0
  0
LINE
  5
71
330
6E
100
AcDbEntity
  8
0
  6
K5LT_THIN
 62
     0
370
    18
100
AcDbLine
 10
4.5
 20
-0.0000000000000006
 30
0.0
 11
5.0
 21
0.6582624912261955
 31
0.0
  0
LINE
  5
72
330
6E
100
AcDbEntity
  8
0
  6
K5LT_THIN
 62
     0
370
    18
100
AcDbLine
 10
5.0
 20
0.6582624912261956
 30
0.0
 11
-0.0000000000000018
 21
-0.0000000000000002
 31
0.0
  0
LINE
  5
73
330
6E
100
AcDbEntity
  8
0
  6
K5LT_THIN
 62
     0
370
    18
100
AcDbLine
 10
0.0
 20
0.0
 30
0.0
 11
7.0
 21
-0.0000000000000009
 31
0.0
  0
HATCH
  5
74
330
6E
100
AcDbEntity
  8
0
 62
     0
100
AcDbHatch
 10
0.0
 20
0.0
 30
0.0
210
0.0
220
0.0
230
1.0
  2
SOLID
 70
     1
 71
     0
 91
        1
 92
        1
 93
        4
 72
     1
 10
4.5
 20
-0.0000000000000006
 11
5.0
 21
0.6582624912261955
 72
     1
 10
5.0
 20
0.6582624912261956
 11
-0.0000000000000018
 21
-0.0000000000000002
 72
     1
 10
0.0
 20
0.0
 11
5.000000000000002
 21
-0.658262491226197
 72
     1
 10
5.0
 20
-0.658262491226197
 11
4.5
 21
-0.0000000000000006
 97
        0
 75
     0
 76
     1
 98
        0
  0
LINE
  5
75
330
6E
100
AcDbEntity
  8
0 (1) (1)
  6
K5LT_THIN
 62
     0
370
    18
100
AcDbLine
 10
0.0
 20
0.0
 30
0.0
 11
-1.0
 21
0.0
 31
0.0
  0
ENDBLK
  5
77
330
6E
100
AcDbEntity
  8
0
100
AcDbBlockEnd
  0
BLOCK
  5
7C
330
78
100
AcDbEntity
  8
0
100
AcDbBlockBegin
  2
KDIMARROW_03
 70
     0
 10
0.0
 20
0.0
 30
0.0
  3
KDIMARROW_03
  1

  0
LINE
  5
79
330
78
100
AcDbEntity
  8
0
  6
K5LT_THIN
 62
     0
370
    18
100
AcDbLine
 10
-1.060500025749207
 20
-1.060500025749206
 30
0.0
 11
1.060500025749206
 21
1.060500025749206
 31
0.0
  0
LINE
  5
7A
330
78
100
AcDbEntity
  8
0
  6
K5LT_THIN
 62
     0
370
    18
100
AcDbLine
 10
0.0
 20
0.0
 30
0.0
 11
2.0
 21
-0.0000000000000002
 31
0.0
  0
LINE
  5
7B
330
78
100
AcDbEntity
  8
0 (1) (1)
  6
K5LT_THIN
 62
     0
370
    18
100
AcDbLine
 10
0.0
 20
0.0
 30
0.0
 11
-1.0
 21
0.0
 31
0.0
  0
ENDBLK
  5
7D
330
78
100
AcDbEntity
  8
0
100
AcDbBlockEnd
  0
BLOCK
  5
82
330
7E
100
AcDbEntity
  8
0
100
AcDbBlockBegin
  2
KDIMARROW_04
 70
     0
 10
0.0
 20
0.0
 30
0.0
  3
KDIMARROW_04
  1

  0
LWPOLYLINE
  5
7F
330
7E
100
AcDbEntity
  8
0
  6
K5LT_THIN
 62
     7
100
AcDbPolyline
 90
       10
 70
     0
 43
0.18
 10
-0.3
 20
0.0
 10
0.0
 20
-0.3
 10
0.3
 20
0.0
 10
0.0
 20
0.3
 10
-0.3
 20
0.0
 10
-0.6
 20
0.0000000000000001
 10
-0.0000000000000001
 20
-0.6
 10
0.6
 20
-0.0000000000000001
 10
0.0000000000000001
 20
0.6
 10
-0.6
 20
0.0000000000000001
  0
LWPOLYLINE
  5
80
330
7E
100
AcDbEntity
  8
0
  6
K5LT_THIN
 62
     7
100
AcDbPolyline
 90
       10
 70
     0
 43
0.18
 10
-0.3
 20
0.0
 10
0.0
 20
-0.3
 10
0.3
 20
0.0
 10
0.0
 20
0.3
 10
-0.3
 20
0.0
 10
-0.6
 20
0.0000000000000001
 10
-0.0000000000000001
 20
-0.6
 10
0.6
 20
-0.0000000000000001
 10
0.0000000000000001
 20
0.6
 10
-0.6
 20
0.0000000000000001
  0
LINE
  5
81
330
7E
100
AcDbEntity
  8
0 (1) (1)
  6
K5LT_THIN
 62
     0
370
    18
100
AcDbLine
 10
0.0
 20
0.0
 30
0.0
 11
-1.0
 21
0.0
 31
0.0
  0
ENDBLK
  5
83
330
7E
100
AcDbEntity
  8
0
100
AcDbBlockEnd
  0
BLOCK
  5
8B
330
84
100
AcDbEntity
  8
0
100
AcDbBlockBegin
  2
KDIMARROW_05
 70
     0
 10
0.0
 20
0.0
 30
0.0
  3
KDIMARROW_05
  1

  0
LINE
  5
85
330
84
100
AcDbEntity
  8
0
  6
K5LT_THIN
 62
     0
370
    18
100
AcDbLine
 10
0.0
 20
0.0
 30
0.0
 11
-5.000000000000002
 21
-0.6582624912261958
 31
0.0
  0
LINE
  5
86
330
84
100
AcDbEntity
  8
0
  6
K5LT_THIN
 62
     0
370
    18
100
AcDbLine
 10
-5.0
 20
-0.6582624912261956
 30
0.0
 11
-5.0
 21
0.0000000000000003
 31
0.0
  0
LINE
  5
87
330
84
100
AcDbEntity
  8
0
  6
K5LT_THIN
 62
     0
370
    18
100
AcDbLine
 10
-5.0
 20
0.0000000000000006
 30
0.0
 11
-5.0
 21
0.6582624912261966
 31
0.0
  0
LINE
  5
88
330
84
100
AcDbEntity
  8
0
  6
K5LT_THIN
 62
     0
370
    18
100
AcDbLine
 10
-5.0
 20
0.658262491226197
 30
0.0
 11
0.0000000000000018
 21
0.0
 31
0.0
  0
HATCH
  5
89
330
84
100
AcDbEntity
  8
0
 62
     0
100
AcDbHatch
 10
0.0
 20
0.0
 30
0.0
210
0.0
220
0.0
230
1.0
  2
SOLID
 70
     1
 71
     0
 91
        1
 92
        1
 93
        4
 72
     1
 10
0.0000000000000018
 20
0.0
 11
-5.0
 21
0.658262491226197
 72
     1
 10
-5.0
 20
0.6582624912261966
 11
-5.0
 21
0.0000000000000007
 72
     1
 10
-5.0
 20
0.0000000000000003
 11
-5.0
 21
-0.6582624912261956
 72
     1
 10
-5.000000000000002
 20
-0.6582624912261958
 11
0.0
 21
0.0
 97
        0
 75
     0
 76
     1
 98
        0
  0
LINE
  5
8A
330
84
100
AcDbEntity
  8
0 (1) (1)
  6
K5LT_THIN
 62
     0
370
    18
100
AcDbLine
 10
0.0
 20
0.0
 30
0.0
 11
-1.0
 21
0.0
 31
0.0
  0
ENDBLK
  5
8C
330
84
100
AcDbEntity
  8
0
100
AcDbBlockEnd
  0
BLOCK
  5
95
330
8D
100
AcDbEntity
  8
0
100
AcDbBlockBegin
  2
KDIMARROW_06
 70
     0
 10
0.0
 20
0.0
 30
0.0
  3
KDIMARROW_06
  1

  0
LINE
  5
8E
330
8D
100
AcDbEntity
  8
0
  6
K5LT_THIN
 62
     0
370
    18
100
AcDbLine
 10
0.0
 20
0.0
 30
0.0
 11
5.000000000000002
 21
-0.658262491226197
 31
0.0
  0
LINE
  5
8F
330
8D
100
AcDbEntity
  8
0
  6
K5LT_THIN
 62
     0
370
    18
100
AcDbLine
 10
5.0
 20
-0.658262491226197
 30
0.0
 11
5.0
 21
-0.000000000000001
 31
0.0
  0
LINE
  5
90
330
8D
100
AcDbEntity
  8
0
  6
K5LT_THIN
 62
     0
370
    18
100
AcDbLine
 10
5.0
 20
-0.0000000000000006
 30
0.0
 11
5.0
 21
0.6582624912261953
 31
0.0
  0
LINE
  5
91
330
8D
100
AcDbEntity
  8
0
  6
K5LT_THIN
 62
     0
370
    18
100
AcDbLine
 10
5.0
 20
0.6582624912261956
 30
0.0
 11
-0.0000000000000018
 21
-0.0000000000000002
 31
0.0
  0
LINE
  5
92
330
8D
100
AcDbEntity
  8
0
  6
K5LT_THIN
 62
     0
370
    18
100
AcDbLine
 10
0.0
 20
0.0
 30
0.0
 11
7.0
 21
-0.0000000000000009
 31
0.0
  0
HATCH
  5
93
330
8D
100
AcDbEntity
  8
0
 62
     0
100
AcDbHatch
 10
0.0
 20
0.0
 30
0.0
210
0.0
220
0.0
230
1.0
  2
SOLID
 70
     1
 71
     0
 91
        1
 92
        1
 93
        4
 72
     1
 10
5.0
 20
-0.0000000000000006
 11
5.0
 21
0.6582624912261953
 72
     1
 10
5.0
 20
0.6582624912261956
 11
-0.0000000000000018
 21
-0.0000000000000002
 72
     1
 10
0.0
 20
0.0
 11
5.000000000000002
 21
-0.658262491226197
 72
     1
 10
5.0
 20
-0.658262491226197
 11
5.0
 21
-0.000000000000001
 97
        0
 75
     0
 76
     1
 98
        0
  0
LINE
  5
94
330
8D
100
AcDbEntity
  8
0 (1) (1)
  6
K5LT_THIN
 62
     0
370
    18
100
AcDbLine
 10
0.0
 20
0.0
 30
0.0
 11
-1.0
 21
0.0
 31
0.0
  0
ENDBLK
  5
96
330
8D
100
AcDbEntity
  8
0
100
AcDbBlockEnd
  0
BLOCK
  5
9B
330
97
100
AcDbEntity
  8
0
100
AcDbBlockBegin
  2
KDIMARROW_07
 70
     0
 10
0.0
 20
0.0
 30
0.0
  3
KDIMARROW_07
  1

  0
LINE
  5
98
330
97
100
AcDbEntity
  8
0
  6
K5LT_THIN
 62
     0
370
    18
100
AcDbLine
 10
0.0
 20
0.0
 30
0.0
 11
-5.000000000000002
 21
-0.6582624912261958
 31
0.0
  0
LINE
  5
99
330
97
100
AcDbEntity
  8
0
  6
K5LT_THIN
 62
     0
370
    18
100
AcDbLine
 10
0.0
 20
0.0
 30
0.0
 11
-5.000000000000002
 21
0.658262491226197
 31
0.0
  0
LINE
  5
9A
330
97
100
AcDbEntity
  8
0 (1) (1)
  6
K5LT_THIN
 62
     0
370
    18
100
AcDbLine
 10
0.0
 20
0.0
 30
0.0
 11
-1.0
 21
0.0
 31
0.0
  0
ENDBLK
  5
9C
330
97
100
AcDbEntity
  8
0
100
AcDbBlockEnd
  0
BLOCK
  5
A2
330
9D
100
AcDbEntity
  8
0
100
AcDbBlockBegin
  2
KDIMARROW_08
 70
     0
 10
0.0
 20
0.0
 30
0.0
  3
KDIMARROW_08
  1

  0
LINE
  5
9E
330
9D
100
AcDbEntity
  8
0
  6
K5LT_THIN
 62
     0
370
    18
100
AcDbLine
 10
0.0
 20
0.0
 30
0.0
 11
5.000000000000002
 21
-0.658262491226197
 31
0.0
  0
LINE
  5
9F
330
9D
100
AcDbEntity
  8
0
  6
K5LT_THIN
 62
     0
370
    18
100
AcDbLine
 10
0.0
 20
0.0
 30
0.0
 11
5.000000000000002
 21
0.6582624912261958
 31
0.0
  0
LINE
  5
A0
330
9D
100
AcDbEntity
  8
0
  6
K5LT_THIN
 62
     0
370
    18
100
AcDbLine
 10
0.0
 20
0.0
 30
0.0
 11
7.0
 21
-0.0000000000000009
 31
0.0
  0
LINE
  5
A1
330
9D
100
AcDbEntity
  8
0 (1) (1)
  6
K5LT_THIN
 62
     0
370
    18
100
AcDbLine
 10
0.0
 20
0.0
 30
0.0
 11
-1.0
 21
0.0
 31
0.0
  0
ENDBLK
  5
A3
330
9D
100
AcDbEntity
  8
0
100
AcDbBlockEnd
  0
BLOCK
  5
A8
330
A4
100
AcDbEntity
  8
0
100
AcDbBlockBegin
  2
KDIMARROW_09
 70
     0
 10
0.0
 20
0.0
 30
0.0
  3
KDIMARROW_09
  1

  0
LINE
  5
A5
330
A4
100
AcDbEntity
  8
0
  6
K5LT_THIN
 62
     0
370
    18
100
AcDbLine
 10
0.0
 20
0.0
 30
0.0
 11
-2.0
 21
-2.0
 31
0.0
  0
LINE
  5
A6
330
A4
100
AcDbEntity
  8
0
  6
K5LT_THIN
 62
     0
370
    18
100
AcDbLine
 10
0.0
 20
0.0
 30
0.0
 11
-2.0
 21
2.0
 31
0.0
  0
LINE
  5
A7
330
A4
100
AcDbEntity
  8
0 (1) (1)
  6
K5LT_THIN
 62
     0
370
    18
100
AcDbLine
 10
0.0
 20
0.0
 30
0.0
 11
-1.0
 21
0.0
 31
0.0
  0
ENDBLK
  5
A9
330
A4
100
AcDbEntity
  8
0
100
AcDbBlockEnd
  0
BLOCK
  5
AF
330
AA
100
AcDbEntity
  8
0
100
AcDbBlockBegin
  2
KDIMARROW_10
 70
     0
 10
0.0
 20
0.0
 30
0.0
  3
KDIMARROW_10
  1

  0
LINE
  5
AB
330
AA
100
AcDbEntity
  8
0
  6
K5LT_THIN
 62
     0
370
    18
100
AcDbLine
 10
0.0
 20
0.0
 30
0.0
 11
2.0
 21
-2.0
 31
0.0
  0
LINE
  5
AC
330
AA
100
AcDbEntity
  8
0
  6
K5LT_THIN
 62
     0
370
    18
100
AcDbLine
 10
0.0
 20
0.0
 30
0.0
 11
2.0
 21
2.0
 31
0.0
  0
LINE
  5
AD
330
AA
100
AcDbEntity
  8
0
  6
K5LT_THIN
 62
     0
370
    18
100
AcDbLine
 10
0.0
 20
0.0
 30
0.0
 11
4.0
 21
-0.0000000000000005
 31
0.0
  0
LINE
  5
AE
330
AA
100
AcDbEntity
  8
0 (1) (1)
  6
K5LT_THIN
 62
     0
370
    18
100
AcDbLine
 10
0.0
 20
0.0
 30
0.0
 11
-1.0
 21
0.0
 31
0.0
  0
ENDBLK
  5
B0
330
AA
100
AcDbEntity
  8
0
100
AcDbBlockEnd
  0
BLOCK
  5
B5
330
B1
100
AcDbEntity
  8
0
100
AcDbBlockBegin
  2
KDIMARROW_11
 70
     0
 10
0.0
 20
0.0
 30
0.0
  3
KDIMARROW_11
  1

  0
CIRCLE
  5
B2
330
B1
100
AcDbEntity
  8
0
  6
K5LT_THIN
 62
     0
370
    18
100
AcDbCircle
 10
0.0
 20
0.0
 30
0.0
 40
2.5
  0
CIRCLE
  5
B3
330
B1
100
AcDbEntity
  8
0
  6
K5LT_THIN
 62
     0
370
    18
100
AcDbCircle
 10
0.0
 20
0.0
 30
0.0
 40
2.5
  0
LINE
  5
B4
330
B1
100
AcDbEntity
  8
0 (1) (1)
  6
K5LT_THIN
 62
     0
370
    18
100
AcDbLine
 10
0.0
 20
0.0
 30
0.0
 11
-1.0
 21
0.0
 31
0.0
  0
ENDBLK
  5
B6
330
B1
100
AcDbEntity
  8
0
100
AcDbBlockEnd
  0
BLOCK
  5
BB
330
B7
100
AcDbEntity
  8
0
100
AcDbBlockBegin
  2
KDIMARROW_12
 70
     0
 10
0.0
 20
0.0
 30
0.0
  3
KDIMARROW_12
  1

  0
CIRCLE
  5
B8
330
B7
100
AcDbEntity
  8
0
  6
K5LT_THIN
 62
     0
370
    18
100
AcDbCircle
 10
0.0
 20
0.0
 30
0.0
 40
1.5
  0
CIRCLE
  5
B9
330
B7
100
AcDbEntity
  8
0
  6
K5LT_THIN
 62
     0
370
    18
100
AcDbCircle
 10
0.0
 20
0.0
 30
0.0
 40
1.5
  0
LINE
  5
BA
330
B7
100
AcDbEntity
  8
0 (1) (1)
  6
K5LT_THIN
 62
     0
370
    18
100
AcDbLine
 10
0.0
 20
0.0
 30
0.0
 11
-1.0
 21
0.0
 31
0.0
  0
ENDBLK
  5
BC
330
B7
100
AcDbEntity
  8
0
100
AcDbBlockEnd
  0
ENDSEC
  0
SECTION
  2
ENTITIES
  0
LINE
  5
BE
330
1F
100
AcDbEntity
  8
0 (1) (1)
  6
K5LT32770
 62
     5
420
      255
370
    60
100
AcDbLine
 10
-0.9511095841667778
 20
27.89401446264456
 30
0.0
 11
-1.389184999999993
 21
30.378462
 31
0.0
  0
LINE
  5
BF
330
1F
100
AcDbEntity
  8
0 (1) (1)
  6
K5LT32770
 62
     5
420
      255
370
    60
100
AcDbLine
 10
-3.141607360068202
 20
26.9866803083442
 30
0.0
 11
-4.588612000000007
 21
29.053217
 31
0.0
  0
LINE
  5
C0
330
1F
100
AcDbEntity
  8
0 (1) (1)
  6
K5LT32770
 62
     5
420
      255
370
    60
100
AcDbLine
 10
-4.4866803083442
 20
25.6416073600682
 30
0.0
 11
-6.553216999999998
 21
27.088612
 31
0.0
  0
LINE
  5
C1
330
1F
100
AcDbEntity
  8
0 (1) (1)
  6
K5LT32770
 62
     5
420
      255
370
    60
100
AcDbLine
 10
7.878462000000019
 20
21.110815
 30
0.0
 11
5.394014462644561
 21
21.54889041583322
 31
0.0
  0
LINE
  5
C2
330
1F
100
AcDbEntity
  8
0 (1) (1)
  6
K5LT32770
 62
     5
420
      255
370
    60
100
AcDbLine
 10
-5.394014462644551
 20
23.45110958416679
 30
0.0
 11
-7.878461999999994
 21
23.889185
 31
0.0
  0
LINE
  5
C3
330
1F
100
AcDbEntity
  8
0 (1) (1)
  6
K5LT32770
 62
     5
420
      255
370
    60
100
AcDbLine
 10
16.50000000000001
 20
27.5
 30
0.0
 11
21.00000000000001
 21
27.5
 31
0.0
  0
LINE
  5
C4
330
1F
100
AcDbEntity
  8
0 (1) (1)
  6
K5LT32770
 62
     5
420
      255
370
    60
100
AcDbLine
 10
-20.99999999999999
 20
27.5
 30
0.0
 11
-16.49999999999999
 21
27.5
 31
0.0
  0
LINE
  5
C5
330
1F
100
AcDbEntity
  8
0 (1) (1)
  6
K5LT32770
 62
     5
420
      255
370
    60
100
AcDbLine
 10
21.00000000000001
 20
28.299999
 30
0.0
 11
22.50000000000001
 21
28.299999
 31
0.0
  0
LINE
  5
C6
330
1F
100
AcDbEntity
  8
0 (1) (1)
  6
K5LT32770
 62
     5
420
      255
370
    60
100
AcDbLine
 10
-22.49999999999999
 20
28.299999
 30
0.0
 11
-20.99999999999999
 21
28.299999
 31
0.0
  0
LINE
  5
C7
330
1F
100
AcDbEntity
  8
0 (1) (1)
  6
K5LT32770
 62
     5
420
      255
370
    60
100
AcDbLine
 10
3.122498999199203
 20
32.0
 30
0.0
 11
7.378679656440362
 21
32.0
 31
0.0
  0
LINE
  5
C8
330
1F
100
AcDbEntity
  8
0 (1) (1)
  6
K5LT32770
 62
     5
420
      255
370
    60
100
AcDbLine
 10
-7.37867965644035
 20
32.0
 30
0.0
 11
-3.122498999199192
 21
32.0
 31
0.0
  0
LINE
  5
C9
330
1F
100
AcDbEntity
  8
0 (1) (1)
  6
K5LT32770
 62
     5
420
      255
370
    60
100
AcDbLine
 10
12.17131934355966
 20
32.549999
 30
0.0
 11
16.2
 21
32.549999
 31
0.0
  0
LINE
  5
CA
330
1F
100
AcDbEntity
  8
0 (1) (1)
  6
K5LT32770
 62
     5
420
      255
370
    60
100
AcDbLine
 10
-16.2
 20
32.549999
 30
0.0
 11
-12.17131934355964
 21
32.549999
 31
0.0
  0
LINE
  5
CB
330
1F
100
AcDbEntity
  8
0 (1) (1)
  6
K5LT32770
 62
     5
420
      255
370
    60
100
AcDbLine
 10
-17.49999999999999
 20
34.5
 30
0.0
 11
-12.99999999999999
 21
34.5
 31
0.0
  0
LINE
  5
CC
330
1F
100
AcDbEntity
  8
0 (1) (1)
  6
K5LT32770
 62
     5
420
      255
370
    60
100
AcDbLine
 10
5.000000000000005
 20
39.0
 30
0.0
 11
9.75000000000002
 21
39.0
 31
0.0
  0
LINE
  5
CD
330
1F
100
AcDbEntity
  8
0 (1) (1)
  6
K5LT32770
 62
     5
420
      255
370
    60
100
AcDbLine
 10
-9.749998999999994
 20
39.0
 30
0.0
 11
-4.999999999999996
 21
39.0
 31
0.0
  0
LINE
  5
CE
330
1F
100
AcDbEntity
  8
0 (1) (1)
  6
K5LT32770
 62
     5
420
      255
370
    60
100
AcDbLine
 10
-19.49999999999999
 20
43.0
 30
0.0
 11
-8.999999999999993
 21
43.0
 31
0.0
  0
LINE
  5
CF
330
1F
100
AcDbEntity
  8
0 (1) (1)
  6
K5LT32770
 62
     5
420
      255
370
    60
100
AcDbLine
 10
5.000000000000005
 20
43.5
 30
0.0
 11
5.799999000000019
 21
43.5
 31
0.0
  0
LINE
  5
D0
330
1F
100
AcDbEntity
  8
0 (1) (1)
  6
K5LT32770
 62
     5
420
      255
370
    60
100
AcDbLine
 10
-5.799998999999994
 20
43.5
 30
0.0
 11
-4.999999999999995
 21
43.5
 31
0.0
  0
LINE
  5
D1
330
1F
100
AcDbEntity
  8
0 (1) (1)
  6
K5LT32770
 62
     5
420
      255
370
    60
100
AcDbLine
 10
5.799999000000019
 20
45.0
 30
0.0
 11
19.50000000000001
 21
45.0
 31
0.0
  0
LINE
  5
D2
330
1F
100
AcDbEntity
  8
0 (1) (1)
  6
K5LT32770
 62
     5
420
      255
370
    60
100
AcDbLine
 10
-19.49999999999999
 20
45.0
 30
0.0
 11
-5.799998999999993
 21
45.0
 31
0.0
  0
LINE
  5
D3
330
1F
100
AcDbEntity
  8
0 (1) (1)
  6
K5LT32770
 62
     5
420
      255
370
    60
100
AcDbLine
 10
-7.878461999999994
 20
21.110815
 30
0.0
 11
-5.394014462644551
 21
21.54889041583321
 31
0.0
  0
LINE
  5
D4
330
1F
100
AcDbEntity
  8
0 (1) (1)
  6
K5LT32770
 62
     5
420
      255
370
    60
100
AcDbLine
 10
5.394014462644561
 20
23.45110958416679
 30
0.0
 11
7.87846199999999
 21
23.889185
 31
0.0
  0
LINE
  5
D5
330
1F
100
AcDbEntity
  8
0 (1) (1)
  6
K5LT32770
 62
     5
420
      255
370
    60
100
AcDbLine
 10
4.486680327494897
 20
25.64160748486333
 30
0.0
 11
6.553215999999997
 21
27.088612
 31
0.0
  0
LINE
  5
D6
330
1F
100
AcDbEntity
  8
0 (1) (1)
  6
K5LT32770
 62
     5
420
      255
370
    60
100
AcDbLine
 10
3.141607360068212
 20
26.9866803083442
 30
0.0
 11
4.588612000000017
 21
29.053217
 31
0.0
  0
LINE
  5
D7
330
1F
100
AcDbEntity
  8
0 (1) (1)
  6
K5LT32770
 62
     5
420
      255
370
    60
100
AcDbLine
 10
0.9511095841667885
 20
27.89401446264456
 30
0.0
 11
1.389185000000003
 21
30.378462
 31
0.0
  0
LINE
  5
D8
330
1F
100
AcDbEntity
  8
0 (1) (1)
  6
K5LT32770
 62
     5
420
      255
370
    60
100
AcDbLine
 10
-22.49999999999999
 20
28.299999
 30
0.0
 11
-22.49999999999999
 21
42.0
 31
0.0
  0
LINE
  5
D9
330
1F
100
AcDbEntity
  8
0 (1) (1)
  6
K5LT32770
 62
     5
420
      255
370
    60
100
AcDbLine
 10
-20.99999999999999
 20
27.5
 30
0.0
 11
-20.99999999999999
 21
28.299999
 31
0.0
  0
LINE
  5
DA
330
1F
100
AcDbEntity
  8
0 (1) (1)
  6
K5LT32770
 62
     5
420
      255
370
    60
100
AcDbLine
 10
-20.49999999999999
 20
31.5
 30
0.0
 11
-20.49999999999999
 21
42.0
 31
0.0
  0
LINE
  5
DB
330
1F
100
AcDbEntity
  8
0 (1) (1)
  6
K5LT32770
 62
     5
420
      255
370
    60
100
AcDbLine
 10
-16.49999999999999
 20
27.5
 30
0.0
 11
-16.49999999999999
 21
32.249999
 31
0.0
  0
LINE
  5
DC
330
1F
100
AcDbEntity
  8
0 (1) (1)
  6
K5LT32770
 62
     5
420
      255
370
    60
100
AcDbLine
 10
-11.99999999999999
 20
35.5
 30
0.0
 11
-11.99999999999999
 21
40.0
 31
0.0
  0
LINE
  5
DD
330
1F
100
AcDbEntity
  8
0 (1) (1)
  6
K5LT32770
 62
     5
420
      255
370
    60
100
AcDbLine
 10
-5.799998999999994
 20
43.5
 30
0.0
 11
-5.799998999999994
 21
45.0
 31
0.0
  0
LINE
  5
DE
330
1F
100
AcDbEntity
  8
0 (1) (1)
  6
K5LT32770
 62
     5
420
      255
370
    60
100
AcDbLine
 10
-4.999999999999995
 20
39.0
 30
0.0
 11
-4.999999999999995
 21
43.5
 31
0.0
  0
LINE
  5
DF
330
1F
100
AcDbEntity
  8
0 (1) (1)
  6
K5LT32770
 62
     5
420
      255
370
    60
100
AcDbLine
 10
5.000000000000005
 20
39.0
 30
0.0
 11
5.000000000000005
 21
43.5
 31
0.0
  0
LINE
  5
E0
330
1F
100
AcDbEntity
  8
0 (1) (1)
  6
K5LT32770
 62
     5
420
      255
370
    60
100
AcDbLine
 10
5.799999000000019
 20
43.5
 30
0.0
 11
5.799999000000019
 21
45.0
 31
0.0
  0
LINE
  5
E1
330
1F
100
AcDbEntity
  8
0 (1) (1)
  6
K5LT32770
 62
     5
420
      255
370
    60
100
AcDbLine
 10
9.500000000000005
 20
25.6224989991992
 30
0.0
 11
9.500000000000005
 21
29.87867965644035
 31
0.0
  0
LINE
  5
E2
330
1F
100
AcDbEntity
  8
0 (1) (1)
  6
K5LT32770
 62
     5
420
      255
370
    60
100
AcDbLine
 10
10.05000000000001
 20
34.67132034355965
 30
0.0
 11
10.05000000000001
 21
38.7
 31
0.0
  0
LINE
  5
E3
330
1F
100
AcDbEntity
  8
0 (1) (1)
  6
K5LT32770
 62
     5
420
      255
370
    60
100
AcDbLine
 10
16.50000000000001
 20
27.5
 30
0.0
 11
16.50000000000001
 21
32.249999
 31
0.0
  0
LINE
  5
E4
330
1F
100
AcDbEntity
  8
0 (1) (1)
  6
K5LT32770
 62
     5
420
      255
370
    60
100
AcDbLine
 10
21.00000000000001
 20
27.5
 30
0.0
 11
21.00000000000001
 21
28.299999
 31
0.0
  0
LINE
  5
E5
330
1F
100
AcDbEntity
  8
0 (1) (1)
  6
K5LT32770
 62
     5
420
      255
370
    60
100
AcDbLine
 10
22.50000000000001
 20
28.299999
 30
0.0
 11
22.50000000000001
 21
42.0
 31
0.0
  0
ARC
  5
E6
330
1F
100
AcDbEntity
  8
0 (1) (1)
  6
K5LT32770
 62
     5
420
      255
370
    60
100
AcDbCircle
 10
-19.49999999999999
 20
42.0
 30
0.0
 40
1.0
100
AcDbArc
 50
90.00000000000081
 51
180.0
  0
ARC
  5
E7
330
1F
100
AcDbEntity
  8
0 (1) (1)
  6
K5LT32770
 62
     5
420
      255
370
    60
100
AcDbCircle
 10
-19.49999999999999
 20
42.0
 30
0.0
 40
3.0
100
AcDbArc
 50
89.99999999999987
 51
180.0
  0
ARC
  5
E8
330
1F
100
AcDbEntity
  8
0 (1) (1)
  6
K5LT32770
 62
     5
420
      255
370
    60
100
AcDbCircle
 10
-13.00000199999998
 20
35.500002
 30
0.0
 40
0.9999999999999956
100
AcDbArc
 50
270.000087426288
 51
359.9999125725783
  0
ARC
  5
E9
330
1F
100
AcDbEntity
  8
0 (1) (1)
  6
K5LT32770
 62
     5
420
      255
370
    60
100
AcDbCircle
 10
0.0000000000000053
 20
22.5
 30
0.0
 40
4.999999714352392
100
AcDbArc
 50
130.2159087275189
 51
139.7840912724812
  0
ARC
  5
EA
330
1F
100
AcDbEntity
  8
0 (1) (1)
  6
K5LT32770
 62
     5
420
      255
370
    60
100
AcDbCircle
 10
0.0000000000000053
 20
22.5
 30
0.0
 40
4.99999971435239
100
AcDbArc
 50
40.21590968197458
 51
49.78409127248113
  0
ARC
  5
EB
330
1F
100
AcDbEntity
  8
0 (1) (1)
  6
K5LT32770
 62
     5
420
      255
370
    60
100
AcDbCircle
 10
0.0000000000000053
 20
22.5
 30
0.0
 40
5.000000250760195
100
AcDbArc
 50
175.2159155425227
 51
184.7840844574773
  0
ARC
  5
EC
330
1F
100
AcDbEntity
  8
0 (1) (1)
  6
K5LT32770
 62
     5
420
      255
370
    60
100
AcDbCircle
 10
0.0000000000000053
 20
22.5
 30
0.0
 40
5.000000250760193
100
AcDbArc
 50
85.21591554252267
 51
94.78408445747733
  0
ARC
  5
ED
330
1F
100
AcDbEntity
  8
0 (1) (1)
  6
K5LT32770
 62
     5
420
      255
370
    60
100
AcDbCircle
 10
0.0000000000000053
 20
22.5
 30
0.0
 40
5.000000250760194
100
AcDbArc
 50
355.2159155425227
 51
4.784084457477372
  0
ARC
  5
EE
330
1F
100
AcDbEntity
  8
0 (1) (1)
  6
K5LT32770
 62
     5
420
      255
370
    60
100
AcDbCircle
 10
0.0000000000000053
 20
22.5
 30
0.0
 40
7.999999903104316
100
AcDbArc
 50
145.0000017252337
 51
170.0000030801062
  0
ARC
  5
EF
330
1F
100
AcDbEntity
  8
0 (1) (1)
  6
K5LT32770
 62
     5
420
      255
370
    60
100
AcDbCircle
 10
0.0000000000000053
 20
22.5
 30
0.0
 40
7.999999428248543
100
AcDbArc
 50
99.99999691989396
 51
124.9999982747664
  0
ARC
  5
F0
330
1F
100
AcDbEntity
  8
0 (1) (1)
  6
K5LT32770
 62
     5
420
      255
370
    60
100
AcDbCircle
 10
0.0000000000000053
 20
22.5
 30
0.0
 40
7.999999903104313
100
AcDbArc
 50
55.00000172523371
 51
80.0000030801061
  0
ARC
  5
F1
330
1F
100
AcDbEntity
  8
0 (1) (1)
  6
K5LT32770
 62
     5
420
      255
370
    60
100
AcDbCircle
 10
0.0000000000000053
 20
22.5
 30
0.0
 40
7.999999428248543
100
AcDbArc
 50
9.999996919893892
 51
35.00000219240182
  0
ARC
  5
F2
330
1F
100
AcDbEntity
  8
0 (1) (1)
  6
K5LT32770
 62
     5
420
      255
370
    60
100
AcDbCircle
 10
19.50000000000001
 20
42.0
 30
0.0
 40
3.0
100
AcDbArc
 50
0.0
 51
90.00000000000011
  0
LINE
  5
F3
330
1F
100
AcDbEntity
  8
0 (1) (1)
  6
K5LT32770
 62
     5
420
      255
370
    60
100
AcDbLine
 10
1.389185000000003
 20
14.621538
 30
0.0
 11
0.9511095841667885
 21
17.10598553735544
 31
0.0
  0
LINE
  5
F4
330
1F
100
AcDbEntity
  8
0 (1) (1)
  6
K5LT32770
 62
     5
420
      255
370
    60
100
AcDbLine
 10
4.588612000000017
 20
15.946784
 30
0.0
 11
3.141607484863338
 21
18.01331967250511
 31
0.0
  0
LINE
  5
F5
330
1F
100
AcDbEntity
  8
0 (1) (1)
  6
K5LT32770
 62
     5
420
      255
370
    60
100
AcDbLine
 10
6.553215999999997
 20
17.911388
 30
0.0
 11
4.486680327494893
 21
19.35839251513667
 31
0.0
  0
LINE
  5
F6
330
1F
100
AcDbEntity
  8
0 (1) (1)
  6
K5LT32770
 62
     5
420
      255
370
    60
100
AcDbLine
 10
-7.378679656440356
 20
13.0
 30
0.0
 11
-3.122498999199196
 21
13.0
 31
0.0
  0
LINE
  5
F7
330
1F
100
AcDbEntity
  8
0 (1) (1)
  6
K5LT32770
 62
     5
420
      255
370
    60
100
AcDbLine
 10
3.122498999199207
 20
13.0
 30
0.0
 11
7.378679656440361
 21
13.0
 31
0.0
  0
LINE
  5
F8
330
1F
100
AcDbEntity
  8
0 (1) (1)
  6
K5LT32770
 62
     5
420
      255
370
    60
100
AcDbLine
 10
-6.553216999999998
 20
17.911388
 30
0.0
 11
-4.4866803083442
 21
19.3583926399318
 31
0.0
  0
LINE
  5
F9
330
1F
100
AcDbEntity
  8
0 (1) (1)
  6
K5LT32770
 62
     5
420
      255
370
    60
100
AcDbLine
 10
-4.588611999999992
 20
15.946784
 30
0.0
 11
-3.141607484863316
 21
18.01331967250511
 31
0.0
  0
LINE
  5
FA
330
1F
100
AcDbEntity
  8
0 (1) (1)
  6
K5LT32770
 62
     5
420
      255
370
    60
100
AcDbLine
 10
-1.389184999999993
 20
14.621538
 30
0.0
 11
-0.9511095841667778
 21
17.10598553735544
 31
0.0
  0
LINE
  5
FB
330
1F
100
AcDbEntity
  8
0 (1) (1)
  6
K5LT32770
 62
     5
420
      255
370
    60
100
AcDbLine
 10
-9.499999999999995
 20
15.12132034355964
 30
0.0
 11
-9.499999999999995
 21
19.3775010008008
 31
0.0
  0
LINE
  5
FC
330
1F
100
AcDbEntity
  8
0 (1) (1)
  6
K5LT32770
 62
     5
420
      255
370
    60
100
AcDbLine
 10
9.500000000000005
 20
15.12132034355964
 30
0.0
 11
9.500000000000005
 21
19.3775010008008
 31
0.0
  0
ARC
  5
FD
330
1F
100
AcDbEntity
  8
0 (1) (1)
  6
K5LT32770
 62
     5
420
      255
370
    60
100
AcDbCircle
 10
0.0000000000000053
 20
22.5
 30
0.0
 40
4.999999714352392
100
AcDbArc
 50
310.2159096819747
 51
319.7840903180253
  0
ARC
  5
FE
330
1F
100
AcDbEntity
  8
0 (1) (1)
  6
K5LT32770
 62
     5
420
      255
370
    60
100
AcDbCircle
 10
0.0000000000000053
 20
22.5
 30
0.0
 40
4.999999714352392
100
AcDbArc
 50
220.2159087275188
 51
229.7840903180253
  0
ARC
  5
FF
330
1F
100
AcDbEntity
  8
0 (1) (1)
  6
K5LT32770
 62
     5
420
      255
370
    60
100
AcDbCircle
 10
0.0000000000000053
 20
22.5
 30
0.0
 40
5.000000250760192
100
AcDbArc
 50
265.2159155425227
 51
274.7840844574773
  0
ARC
  5
100
330
1F
100
AcDbEntity
  8
0 (1) (1)
  6
K5LT32770
 62
     5
420
      255
370
    60
100
AcDbCircle
 10
0.0000000000000053
 20
22.5
 30
0.0
 40
7.999999903104313
100
AcDbArc
 50
324.999997807598
 51
350.0000030801062
  0
ARC
  5
101
330
1F
100
AcDbEntity
  8
0 (1) (1)
  6
K5LT32770
 62
     5
420
      255
370
    60
100
AcDbCircle
 10
0.0000000000000053
 20
22.5
 30
0.0
 40
7.999999428248543
100
AcDbArc
 50
279.9999969198939
 51
305.000002192402
  0
ARC
  5
102
330
1F
100
AcDbEntity
  8
0 (1) (1)
  6
K5LT32770
 62
     5
420
      255
370
    60
100
AcDbCircle
 10
0.0000000000000053
 20
22.5
 30
0.0
 40
7.999999903104314
100
AcDbArc
 50
234.9999978075981
 51
260.0000030801062
  0
ARC
  5
103
330
1F
100
AcDbEntity
  8
0 (1) (1)
  6
K5LT32770
 62
     5
420
      255
370
    60
100
AcDbCircle
 10
0.0000000000000053
 20
22.5
 30
0.0
 40
7.999999428248543
100
AcDbArc
 50
189.9999969198937
 51
214.9999982747666
  0
LINE
  5
104
330
1F
100
AcDbEntity
  8
0 (1) (1)
  6
K5LT32770
 62
     5
420
      255
370
    60
100
AcDbLine
 10
-22.49999999999999
 20
16.700001
 30
0.0
 11
-20.99999999999999
 21
16.700001
 31
0.0
  0
LINE
  5
105
330
1F
100
AcDbEntity
  8
0 (1) (1)
  6
K5LT32770
 62
     5
420
      255
370
    60
100
AcDbLine
 10
-20.99999999999999
 20
17.5
 30
0.0
 11
-16.49999999999999
 21
17.5
 31
0.0
  0
LINE
  5
106
330
1F
100
AcDbEntity
  8
0 (1) (1)
  6
K5LT32770
 62
     5
420
      255
370
    60
100
AcDbLine
 10
-20.99999999999999
 20
16.700001
 30
0.0
 11
-20.99999999999999
 21
17.5
 31
0.0
  0
LINE
  5
107
330
1F
100
AcDbEntity
  8
0 (1) (1)
  6
K5LT32770
 62
     5
420
      255
370
    60
100
AcDbLine
 10
-16.49999999999999
 20
12.75
 30
0.0
 11
-16.49999999999999
 21
17.5
 31
0.0
  0
LINE
  5
108
330
1F
100
AcDbEntity
  8
0 (1) (1)
  6
K5LT32770
 62
     5
420
      255
370
    60
100
AcDbLine
 10
21.00000000000001
 20
16.700001
 30
0.0
 11
22.50000000000001
 21
16.700001
 31
0.0
  0
LINE
  5
109
330
1F
100
AcDbEntity
  8
0 (1) (1)
  6
K5LT32770
 62
     5
420
      255
370
    60
100
AcDbLine
 10
16.50000000000001
 20
17.5
 30
0.0
 11
21.00000000000001
 21
17.5
 31
0.0
  0
LINE
  5
10A
330
1F
100
AcDbEntity
  8
0 (1) (1)
  6
K5LT32770
 62
     5
420
      255
370
    60
100
AcDbLine
 10
21.00000000000001
 20
16.700001
 30
0.0
 11
21.00000000000001
 21
17.5
 31
0.0
  0
LINE
  5
10B
330
1F
100
AcDbEntity
  8
0 (1) (1)
  6
K5LT32770
 62
     5
420
      255
370
    60
100
AcDbLine
 10
16.50000000000001
 20
12.75
 30
0.0
 11
16.50000000000001
 21
17.5
 31
0.0
  0
LINE
  5
10C
330
1F
100
AcDbEntity
  8
0 (1) (1)
  6
K5LT32770
 62
     5
420
      255
370
    60
100
AcDbLine
 10
12.17132034355965
 20
12.45
 30
0.0
 11
16.2
 21
12.45
 31
0.0
  0
LINE
  5
10D
330
1F
100
AcDbEntity
  8
0 (1) (1)
  6
K5LT32770
 62
     5
420
      255
370
    60
100
AcDbLine
 10
-16.2
 20
12.45
 30
0.0
 11
-12.17132034355965
 21
12.45
 31
0.0
  0
ARC
  5
10E
330
1F
100
AcDbEntity
  8
0 (1) (1)
  6
K5LT32770
 62
     5
420
      255
370
    60
100
AcDbCircle
 10
-4.199892080799836
 20
26.05118337565257
 30
0.0
 40
0.5
100
AcDbArc
 50
234.9999986893888
 51
319.7840912724812
  0
ARC
  5
10F
330
1F
100
AcDbEntity
  8
0 (1) (1)
  6
K5LT32770
 62
     5
420
      255
370
    60
100
AcDbCircle
 10
-3.551183375652569
 20
26.69989208079984
 30
0.0
 40
0.5
100
AcDbArc
 50
310.215908727519
 51
35.00000131061113
  0
ARC
  5
110
330
1F
100
AcDbEntity
  8
0 (1) (1)
  6
K5LT32770
 62
     5
420
      255
370
    60
100
AcDbCircle
 10
-0.45870571724714
 20
27.98083860584555
 30
0.0
 40
0.5000000000000001
100
AcDbArc
 50
190.0000063261684
 51
274.7840844574773
  0
ARC
  5
111
330
1F
100
AcDbEntity
  8
0 (1) (1)
  6
K5LT32770
 62
     5
420
      255
370
    60
100
AcDbCircle
 10
0.4587057172471507
 20
27.98083860584555
 30
0.0
 40
0.5
100
AcDbArc
 50
265.2159155425227
 51
349.9999936738314
  0
ARC
  5
112
330
1F
100
AcDbEntity
  8
0 (1) (1)
  6
K5LT32770
 62
     5
420
      255
370
    60
100
AcDbCircle
 10
3.551183375652575
 20
26.69989208079983
 30
0.0
 40
0.5
100
AcDbArc
 50
144.9999986893888
 51
229.7840912724811
  0
ARC
  5
113
330
1F
100
AcDbEntity
  8
0 (1) (1)
  6
K5LT32770
 62
     5
420
      255
370
    60
100
AcDbCircle
 10
4.199892021642826
 20
26.05118344561603
 30
0.0
 40
0.5
100
AcDbArc
 50
220.2159096819745
 51
305.0000122651135
  0
ARC
  5
114
330
1F
100
AcDbEntity
  8
0 (1) (1)
  6
K5LT32770
 62
     5
420
      255
370
    60
100
AcDbCircle
 10
5.480838605845554
 20
22.95870571724715
 30
0.0
 40
0.5000000000000001
100
AcDbArc
 50
100.0000063261687
 51
184.7840844574772
  0
ARC
  5
115
330
1F
100
AcDbEntity
  8
0 (1) (1)
  6
K5LT32770
 62
     5
420
      255
370
    60
100
AcDbCircle
 10
5.480838605845554
 20
22.04129428275286
 30
0.0
 40
0.5
100
AcDbArc
 50
175.2159155425231
 51
259.9999936738314
  0
ARC
  5
116
330
1F
100
AcDbEntity
  8
0 (1) (1)
  6
K5LT32770
 62
     5
420
      255
370
    60
100
AcDbCircle
 10
4.199892021642822
 20
18.94881655438396
 30
0.0
 40
0.4999999999999999
100
AcDbArc
 50
54.99998773488673
 51
139.7840903180257
  0
ARC
  5
117
330
1F
100
AcDbEntity
  8
0 (1) (1)
  6
K5LT32770
 62
     5
420
      255
370
    60
100
AcDbCircle
 10
3.551183445616041
 20
18.30010797835718
 30
0.0
 40
0.5
100
AcDbArc
 50
130.2159096819745
 51
215.0000122651134
  0
ARC
  5
118
330
1F
100
AcDbEntity
  8
0 (1) (1)
  6
K5LT32770
 62
     5
420
      255
370
    60
100
AcDbCircle
 10
0.4587057172471507
 20
17.01916139415446
 30
0.0
 40
0.5000000000000001
100
AcDbArc
 50
10.00000632616848
 51
94.78408445747753
  0
ARC
  5
119
330
1F
100
AcDbEntity
  8
0 (1) (1)
  6
K5LT32770
 62
     5
420
      255
370
    60
100
AcDbCircle
 10
-0.45870571724714
 20
17.01916139415446
 30
0.0
 40
0.5
100
AcDbArc
 50
85.21591554252267
 51
169.9999936738315
  0
ARC
  5
11A
330
1F
100
AcDbEntity
  8
0 (1) (1)
  6
K5LT32770
 62
     5
420
      255
370
    60
100
AcDbCircle
 10
-3.551183445616021
 20
18.30010797835717
 30
0.0
 40
0.5
100
AcDbArc
 50
324.9999877348866
 51
49.78409031802559
  0
ARC
  5
11B
330
1F
100
AcDbEntity
  8
0 (1) (1)
  6
K5LT32770
 62
     5
420
      255
370
    60
100
AcDbCircle
 10
-4.199892080799836
 20
18.94881662434743
 30
0.0
 40
0.5
100
AcDbArc
 50
40.21590872751893
 51
125.0000013106111
  0
ARC
  5
11C
330
1F
100
AcDbEntity
  8
0 (1) (1)
  6
K5LT32770
 62
     5
420
      255
370
    60
100
AcDbCircle
 10
-5.480838605845543
 20
22.04129428275285
 30
0.0
 40
0.5
100
AcDbArc
 50
280.0000063261686
 51
4.784084457477372
  0
ARC
  5
11D
330
1F
100
AcDbEntity
  8
0 (1) (1)
  6
K5LT32770
 62
     5
420
      255
370
    60
100
AcDbCircle
 10
-5.480838605845543
 20
22.95870571724715
 30
0.0
 40
0.5
100
AcDbArc
 50
355.2159155425227
 51
79.99999367383145
  0
LINE
  5
11E
330
1F
100
AcDbEntity
  8
0 (1) (1)
  6
K5LT32770
 62
     5
420
      255
370
    60
100
AcDbLine
 10
-9.499999999999995
 20
25.6224989991992
 30
0.0
 11
-9.499999999999995
 21
29.87867965644036
 31
0.0
  0
LINE
  5
11F
330
1F
100
AcDbEntity
  8
0 (1) (1)
  6
K5LT32770
 62
     5
420
      255
370
    60
100
AcDbLine
 10
-9.499999999999995
 20
29.87867965644036
 30
0.0
 11
-12.17131934355963
 21
32.549999
 31
0.0
  0
LINE
  5
120
330
1F
100
AcDbEntity
  8
0 (1) (1)
  6
K5LT32770
 62
     5
420
      255
370
    60
100
AcDbLine
 10
7.378679656440361
 20
32.0
 30
0.0
 11
10.05000000000001
 21
34.67132034355965
 31
0.0
  0
LINE
  5
121
330
1F
100
AcDbEntity
  8
0 (1) (1)
  6
K5LT32770
 62
     5
420
      255
370
    60
100
AcDbLine
 10
9.500000000000005
 20
29.87867965644035
 30
0.0
 11
12.17131934355966
 21
32.549999
 31
0.0
  0
LINE
  5
122
330
1F
100
AcDbEntity
  8
0 (1) (1)
  6
K5LT32770
 62
     5
420
      255
370
    60
100
AcDbLine
 10
9.500000000000005
 20
15.12132034355964
 30
0.0
 11
12.17132034355965
 21
12.45
 31
0.0
  0
LINE
  5
123
330
1F
100
AcDbEntity
  8
0 (1) (1)
  6
K5LT32770
 62
     5
420
      255
370
    60
100
AcDbLine
 10
-7.378679656440356
 20
13.0
 30
0.0
 11
-10.6357864376269
 21
9.742893218813451
 31
0.0
  0
LINE
  5
124
330
1F
100
AcDbEntity
  8
0 (1) (1)
  6
K5LT32770
 62
     5
420
      255
370
    60
100
AcDbLine
 10
-12.17132034355964
 20
12.45
 30
0.0
 11
-9.499999999999995
 21
15.12132034355964
 31
0.0
  0
ARC
  5
125
330
1F
100
AcDbEntity
  8
0 (1) (1)
  6
K5LT32770
 62
     5
420
      255
370
    60
100
AcDbCircle
 10
-16.2
 20
12.75
 30
0.0
 40
0.3
100
AcDbArc
 50
180.0
 51
270.0
  0
ARC
  5
126
330
1F
100
AcDbEntity
  8
0 (1) (1)
  6
K5LT32770
 62
     5
420
      255
370
    60
100
AcDbCircle
 10
16.2
 20
12.75
 30
0.0
 40
0.3
100
AcDbArc
 50
270.0
 51
0.0
  0
ARC
  5
127
330
1F
100
AcDbEntity
  8
0 (1) (1)
  6
K5LT32770
 62
     5
420
      255
370
    60
100
AcDbCircle
 10
16.2
 20
32.249999
 30
0.0
 40
0.3
100
AcDbArc
 50
0.0
 51
90.0
  0
ARC
  5
128
330
1F
100
AcDbEntity
  8
0 (1) (1)
  6
K5LT32770
 62
     5
420
      255
370
    60
100
AcDbCircle
 10
9.75000000000002
 20
38.7
 30
0.0
 40
0.3
100
AcDbArc
 50
0.0
 51
90.0
  0
ARC
  5
129
330
1F
100
AcDbEntity
  8
0 (1) (1)
  6
K5LT32770
 62
     5
420
      255
370
    60
100
AcDbCircle
 10
-9.749998999999994
 20
38.7
 30
0.0
 40
0.3
100
AcDbArc
 50
90.0
 51
180.0
  0
ARC
  5
12A
330
1F
100
AcDbEntity
  8
0 (1) (1)
  6
K5LT32770
 62
     5
420
      255
370
    60
100
AcDbCircle
 10
-16.2
 20
32.249999
 30
0.0
 40
0.3
100
AcDbArc
 50
90.0
 51
180.0
  0
LINE
  5
12B
330
1F
100
AcDbEntity
  8
0 (1) (1)
  6
K5LT32770
 62
     5
420
      255
370
    60
100
AcDbLine
 10
-10.04999899999999
 20
34.67131934355965
 30
0.0
 11
-10.04999899999999
 21
38.7
 31
0.0
  0
LINE
  5
12C
330
1F
100
AcDbEntity
  8
0 (1) (1)
  6
K5LT32770
 62
     5
420
      255
370
    60
100
AcDbLine
 10
-10.04999899999999
 20
34.67131934355965
 30
0.0
 11
-7.37867965644035
 21
32.0
 31
0.0
  0
LINE
  5
12E
330
1F
100
AcDbEntity
  8
0 (1) (1)
  6
K5LT32768
 62
     5
420
      255
370
    60
100
AcDbLine
 10
-9.46242942258563
 20
22.5
 30
0.0
 11
-9.96242942258563
 21
23.36602540378444
 31
0.0
  0
LINE
  5
12F
330
1F
100
AcDbEntity
  8
0 (1) (1)
  6
K5LT32768
 62
     5
420
      255
370
    60
100
AcDbLine
 10
-9.46242942258563
 20
22.5
 30
0.0
 11
-9.96242942258563
 21
21.63397459621556
 31
0.0
  0
ARC
  5
130
330
1F
100
AcDbEntity
  8
0 (1) (1)
  6
K5LT32770
 62
     5
420
      255
370
    60
100
AcDbCircle
 10
0.0000000000000053
 20
22.5
 30
0.0
 40
10.0
100
AcDbArc
 50
184.9681835360703
 51
198.1948723387668
  0
ARC
  5
131
330
1F
100
AcDbEntity
  8
0 (1) (1)
  6
K5LT32770
 62
     5
420
      255
370
    60
100
AcDbCircle
 10
0.0000000000000053
 20
22.5
 30
0.0
 40
10.0
100
AcDbArc
 50
161.8051276612332
 51
175.0318164639297
  0
ARC
  5
132
330
1F
100
AcDbEntity
  8
0 (1) (1)
  6
K5LT32770
 62
     5
420
      255
370
    60
100
AcDbCircle
 10
0.0000000000000053
 20
22.5
 30
0.0
 40
10.0
100
AcDbArc
 50
71.8051276612332
 51
85.03181646392963
  0
ARC
  5
133
330
1F
100
AcDbEntity
  8
0 (1) (1)
  6
K5LT32770
 62
     5
420
      255
370
    60
100
AcDbCircle
 10
0.0000000000000053
 20
22.5
 30
0.0
 40
10.0
100
AcDbArc
 50
341.8051276612332
 51
355.0318164639296
  0
LINE
  5
134
330
1F
100
AcDbEntity
  8
0 (1) (1)
  6
K5LT32768
 62
     5
420
      255
370
    60
100
AcDbLine
 10
0.0000000000000053
 20
31.96242942258564
 30
0.0
 11
0.8660254037844464
 21
32.46242942258564
 31
0.0
  0
LINE
  5
135
330
1F
100
AcDbEntity
  8
0 (1) (1)
  6
K5LT32768
 62
     5
420
      255
370
    60
100
AcDbLine
 10
0.0000000000000053
 20
31.96242942258564
 30
0.0
 11
-0.8660254037844357
 21
32.46242942258564
 31
0.0
  0
LINE
  5
136
330
1F
100
AcDbEntity
  8
0 (1) (1)
  6
K5LT32768
 62
     5
420
      255
370
    60
100
AcDbLine
 10
9.462429422585641
 20
22.5
 30
0.0
 11
9.962429422585641
 21
21.63397459621556
 31
0.0
  0
LINE
  5
137
330
1F
100
AcDbEntity
  8
0 (1) (1)
  6
K5LT32768
 62
     5
420
      255
370
    60
100
AcDbLine
 10
9.462429422585641
 20
22.5
 30
0.0
 11
9.962429422585641
 21
23.36602540378444
 31
0.0
  0
ARC
  5
138
330
1F
100
AcDbEntity
  8
0 (1) (1)
  6
K5LT32770
 62
     5
420
      255
370
    60
100
AcDbCircle
 10
0.0000000000000053
 20
22.5
 30
0.0
 40
9.999999999999998
100
AcDbArc
 50
94.9681835360704
 51
108.1948723387668
  0
ARC
  5
139
330
1F
100
AcDbEntity
  8
0 (1) (1)
  6
K5LT32770
 62
     5
420
      255
370
    60
100
AcDbCircle
 10
0.0000000000000053
 20
22.5
 30
0.0
 40
10.0
100
AcDbArc
 50
4.968183536070343
 51
18.1948723387668
  0
LINE
  5
13A
330
1F
100
AcDbEntity
  8
0 (1) (1)
  6
K5LT32770
 62
     5
420
      255
370
    60
100
AcDbLine
 10
-10.99999999999999
 20
41.0
 30
0.0
 11
-8.999999999999995
 21
41.0
 31
0.0
  0
ARC
  5
13B
330
1F
100
AcDbEntity
  8
0 (1) (1)
  6
K5LT32770
 62
     5
420
      255
370
    60
100
AcDbCircle
 10
-10.99999999999999
 20
40.0
 30
0.0
 40
1.0
100
AcDbArc
 50
90.0
 51
180.0
  0
ARC
  5
13C
330
1F
100
AcDbEntity
  8
0 (1) (1)
  6
K5LT32770
 62
     5
420
      255
370
    60
100
AcDbCircle
 10
-8.999999999999995
 20
42.0
 30
0.0
 40
1.0
100
AcDbArc
 50
270.0
 51
90.0
  0
LINE
  5
13D
330
1F
100
AcDbEntity
  8
0 (1) (1)
  6
K5LT32770
 62
     5
420
      255
370
    60
100
AcDbLine
 10
-18.49999999999999
 20
33.5
 30
0.0
 11
-18.49999999999999
 21
31.5
 31
0.0
  0
ARC
  5
13E
330
1F
100
AcDbEntity
  8
0 (1) (1)
  6
K5LT32770
 62
     5
420
      255
370
    60
100
AcDbCircle
 10
-17.49999999999999
 20
33.5
 30
0.0
 40
1.0
100
AcDbArc
 50
90.0
 51
180.0
  0
ARC
  5
13F
330
1F
100
AcDbEntity
  8
0 (1) (1)
  6
K5LT32770
 62
     5
420
      255
370
    60
100
AcDbCircle
 10
-19.49999999999999
 20
31.5
 30
0.0
 40
1.0
100
AcDbArc
 50
180.0
 51
0.0
  0
LINE
  5
140
330
1F
100
AcDbEntity
  8
0 (1) (1)
  6
K5LT32770
 62
     5
420
      255
370
    60
100
AcDbLine
 10
17.50000000000001
 20
34.49999999999999
 30
0.0
 11
13.00000000000001
 21
34.49999999999999
 31
0.0
  0
LINE
  5
141
330
1F
100
AcDbEntity
  8
0 (1) (1)
  6
K5LT32770
 62
     5
420
      255
370
    60
100
AcDbLine
 10
12.00000000000002
 20
35.49999999999999
 30
0.0
 11
12.00000000000002
 21
39.99999999999999
 31
0.0
  0
ARC
  5
142
330
1F
100
AcDbEntity
  8
0 (1) (1)
  6
K5LT32770
 62
     5
420
      255
370
    60
100
AcDbCircle
 10
19.50000000000001
 20
41.99999999999999
 30
0.0
 40
1.0
100
AcDbArc
 50
0.0
 51
89.99999999999919
  0
ARC
  5
143
330
1F
100
AcDbEntity
  8
0 (1) (1)
  6
K5LT32770
 62
     5
420
      255
370
    60
100
AcDbCircle
 10
13.00000199999999
 20
35.50000199999999
 30
0.0
 40
0.9999999999999953
100
AcDbArc
 50
180.0000874274217
 51
269.9999125737123
  0
ARC
  5
144
330
1F
100
AcDbEntity
  8
0 (1) (1)
  6
K5LT32770
 62
     5
420
      255
370
    60
100
AcDbCircle
 10
11.00000000000002
 20
39.99999999999999
 30
0.0
 40
1.0
100
AcDbArc
 50
0.0
 51
90.0
  0
ARC
  5
145
330
1F
100
AcDbEntity
  8
0 (1) (1)
  6
K5LT32770
 62
     5
420
      255
370
    60
100
AcDbCircle
 10
17.50000000000001
 20
33.49999999999999
 30
0.0
 40
1.0
100
AcDbArc
 50
0.0
 51
90.0
  0
LINE
  5
146
330
1F
100
AcDbEntity
  8
0 (1) (1)
  6
K5LT32770
 62
     5
420
      255
370
    60
100
AcDbLine
 10
19.50000000000001
 20
42.99999999999999
 30
0.0
 11
9.000000000000018
 21
43.0
 31
0.0
  0
LINE
  5
147
330
1F
100
AcDbEntity
  8
0 (1) (1)
  6
K5LT32770
 62
     5
420
      255
370
    60
100
AcDbLine
 10
11.00000000000002
 20
40.99999999999999
 30
0.0
 11
9.00000000000002
 21
40.99999999999999
 31
0.0
  0
ARC
  5
148
330
1F
100
AcDbEntity
  8
0 (1) (1)
  6
K5LT32770
 62
     5
420
      255
370
    60
100
AcDbCircle
 10
9.00000000000002
 20
42.0
 30
0.0
 40
1.0
100
AcDbArc
 50
90.0
 51
270.0
  0
LINE
  5
149
330
1F
100
AcDbEntity
  8
0 (1) (1)
  6
K5LT32770
 62
     5
420
      255
370
    60
100
AcDbLine
 10
20.50000000000001
 20
31.49999999999999
 30
0.0
 11
20.50000000000001
 21
41.99999999999999
 31
0.0
  0
LINE
  5
14A
330
1F
100
AcDbEntity
  8
0 (1) (1)
  6
K5LT32770
 62
     5
420
      255
370
    60
100
AcDbLine
 10
18.50000000000001
 20
33.49999999999999
 30
0.0
 11
18.5
 21
31.49999999999999
 31
0.0
  0
ARC
  5
14B
330
1F
100
AcDbEntity
  8
0 (1) (1)
  6
K5LT32770
 62
     5
420
      255
370
    60
100
AcDbCircle
 10
19.50000000000001
 20
31.49999999999999
 30
0.0
 40
1.0
100
AcDbArc
 50
180.0
 51
0.0
  0
LINE
  5
14C
330
1F
100
AcDbEntity
  8
0 (1) (1)
  6
K5LT32770
 62
     5
420
      255
370
    60
100
AcDbLine
 10
-0.9511095841667778
 20
-27.89401446264456
 30
0.0
 11
-1.389184999999993
 21
-30.378462
 31
0.0
  0
LINE
  5
14D
330
1F
100
AcDbEntity
  8
0 (1) (1)
  6
K5LT32770
 62
     5
420
      255
370
    60
100
AcDbLine
 10
-3.141607360068202
 20
-26.9866803083442
 30
0.0
 11
-4.588612000000007
 21
-29.053217
 31
0.0
  0
LINE
  5
14E
330
1F
100
AcDbEntity
  8
0 (1) (1)
  6
K5LT32770
 62
     5
420
      255
370
    60
100
AcDbLine
 10
-4.4866803083442
 20
-25.6416073600682
 30
0.0
 11
-6.553216999999998
 21
-27.088612
 31
0.0
  0
LINE
  5
14F
330
1F
100
AcDbEntity
  8
0 (1) (1)
  6
K5LT32770
 62
     5
420
      255
370
    60
100
AcDbLine
 10
7.878462000000019
 20
-21.110815
 30
0.0
 11
5.394014462644561
 21
-21.54889041583322
 31
0.0
  0
LINE
  5
150
330
1F
100
AcDbEntity
  8
0 (1) (1)
  6
K5LT32770
 62
     5
420
      255
370
    60
100
AcDbLine
 10
-5.394014462644551
 20
-23.45110958416679
 30
0.0
 11
-7.878461999999994
 21
-23.889185
 31
0.0
  0
LINE
  5
151
330
1F
100
AcDbEntity
  8
0 (1) (1)
  6
K5LT32770
 62
     5
420
      255
370
    60
100
AcDbLine
 10
16.50000000000001
 20
-27.5
 30
0.0
 11
21.00000000000001
 21
-27.5
 31
0.0
  0
LINE
  5
152
330
1F
100
AcDbEntity
  8
0 (1) (1)
  6
K5LT32770
 62
     5
420
      255
370
    60
100
AcDbLine
 10
-20.99999999999999
 20
-27.5
 30
0.0
 11
-16.49999999999999
 21
-27.5
 31
0.0
  0
LINE
  5
153
330
1F
100
AcDbEntity
  8
0 (1) (1)
  6
K5LT32770
 62
     5
420
      255
370
    60
100
AcDbLine
 10
21.00000000000001
 20
-28.299999
 30
0.0
 11
22.50000000000001
 21
-28.299999
 31
0.0
  0
LINE
  5
154
330
1F
100
AcDbEntity
  8
0 (1) (1)
  6
K5LT32770
 62
     5
420
      255
370
    60
100
AcDbLine
 10
-22.49999999999999
 20
-28.299999
 30
0.0
 11
-20.99999999999999
 21
-28.299999
 31
0.0
  0
LINE
  5
155
330
1F
100
AcDbEntity
  8
0 (1) (1)
  6
K5LT32770
 62
     5
420
      255
370
    60
100
AcDbLine
 10
3.122498999199203
 20
-32.0
 30
0.0
 11
7.378679656440362
 21
-32.0
 31
0.0
  0
LINE
  5
156
330
1F
100
AcDbEntity
  8
0 (1) (1)
  6
K5LT32770
 62
     5
420
      255
370
    60
100
AcDbLine
 10
-7.37867965644035
 20
-32.0
 30
0.0
 11
-3.122498999199192
 21
-32.0
 31
0.0
  0
LINE
  5
157
330
1F
100
AcDbEntity
  8
0 (1) (1)
  6
K5LT32770
 62
     5
420
      255
370
    60
100
AcDbLine
 10
12.17131934355966
 20
-32.549999
 30
0.0
 11
16.2
 21
-32.549999
 31
0.0
  0
LINE
  5
158
330
1F
100
AcDbEntity
  8
0 (1) (1)
  6
K5LT32770
 62
     5
420
      255
370
    60
100
AcDbLine
 10
-16.2
 20
-32.549999
 30
0.0
 11
-12.17131934355964
 21
-32.549999
 31
0.0
  0
LINE
  5
159
330
1F
100
AcDbEntity
  8
0 (1) (1)
  6
K5LT32770
 62
     5
420
      255
370
    60
100
AcDbLine
 10
-17.49999999999999
 20
-34.5
 30
0.0
 11
-12.99999999999999
 21
-34.5
 31
0.0
  0
LINE
  5
15A
330
1F
100
AcDbEntity
  8
0 (1) (1)
  6
K5LT32770
 62
     5
420
      255
370
    60
100
AcDbLine
 10
5.000000000000005
 20
-39.0
 30
0.0
 11
9.75000000000002
 21
-39.0
 31
0.0
  0
LINE
  5
15B
330
1F
100
AcDbEntity
  8
0 (1) (1)
  6
K5LT32770
 62
     5
420
      255
370
    60
100
AcDbLine
 10
-9.749998999999994
 20
-39.0
 30
0.0
 11
-4.999999999999996
 21
-39.0
 31
0.0
  0
LINE
  5
15C
330
1F
100
AcDbEntity
  8
0 (1) (1)
  6
K5LT32770
 62
     5
420
      255
370
    60
100
AcDbLine
 10
-19.49999999999999
 20
-43.0
 30
0.0
 11
-8.999999999999993
 21
-43.0
 31
0.0
  0
LINE
  5
15D
330
1F
100
AcDbEntity
  8
0 (1) (1)
  6
K5LT32770
 62
     5
420
      255
370
    60
100
AcDbLine
 10
5.000000000000005
 20
-43.5
 30
0.0
 11
5.799999000000019
 21
-43.5
 31
0.0
  0
LINE
  5
15E
330
1F
100
AcDbEntity
  8
0 (1) (1)
  6
K5LT32770
 62
     5
420
      255
370
    60
100
AcDbLine
 10
-5.799998999999994
 20
-43.5
 30
0.0
 11
-4.999999999999995
 21
-43.5
 31
0.0
  0
LINE
  5
15F
330
1F
100
AcDbEntity
  8
0 (1) (1)
  6
K5LT32770
 62
     5
420
      255
370
    60
100
AcDbLine
 10
5.799999000000019
 20
-45.0
 30
0.0
 11
19.50000000000001
 21
-45.0
 31
0.0
  0
LINE
  5
160
330
1F
100
AcDbEntity
  8
0 (1) (1)
  6
K5LT32770
 62
     5
420
      255
370
    60
100
AcDbLine
 10
-19.49999999999999
 20
-45.0
 30
0.0
 11
-5.799998999999993
 21
-45.0
 31
0.0
  0
LINE
  5
161
330
1F
100
AcDbEntity
  8
0 (1) (1)
  6
K5LT32770
 62
     5
420
      255
370
    60
100
AcDbLine
 10
-7.878461999999994
 20
-21.110815
 30
0.0
 11
-5.394014462644551
 21
-21.54889041583321
 31
0.0
  0
LINE
  5
162
330
1F
100
AcDbEntity
  8
0 (1) (1)
  6
K5LT32770
 62
     5
420
      255
370
    60
100
AcDbLine
 10
5.394014462644561
 20
-23.45110958416679
 30
0.0
 11
7.87846199999999
 21
-23.889185
 31
0.0
  0
LINE
  5
163
330
1F
100
AcDbEntity
  8
0 (1) (1)
  6
K5LT32770
 62
     5
420
      255
370
    60
100
AcDbLine
 10
4.486680327494897
 20
-25.64160748486333
 30
0.0
 11
6.553215999999997
 21
-27.088612
 31
0.0
  0
LINE
  5
164
330
1F
100
AcDbEntity
  8
0 (1) (1)
  6
K5LT32770
 62
     5
420
      255
370
    60
100
AcDbLine
 10
3.141607360068212
 20
-26.9866803083442
 30
0.0
 11
4.588612000000017
 21
-29.053217
 31
0.0
  0
LINE
  5
165
330
1F
100
AcDbEntity
  8
0 (1) (1)
  6
K5LT32770
 62
     5
420
      255
370
    60
100
AcDbLine
 10
0.9511095841667885
 20
-27.89401446264456
 30
0.0
 11
1.389185000000003
 21
-30.378462
 31
0.0
  0
LINE
  5
166
330
1F
100
AcDbEntity
  8
0 (1) (1)
  6
K5LT32770
 62
     5
420
      255
370
    60
100
AcDbLine
 10
-22.49999999999999
 20
-28.299999
 30
0.0
 11
-22.49999999999999
 21
-42.0
 31
0.0
  0
LINE
  5
167
330
1F
100
AcDbEntity
  8
0 (1) (1)
  6
K5LT32770
 62
     5
420
      255
370
    60
100
AcDbLine
 10
-20.99999999999999
 20
-27.5
 30
0.0
 11
-20.99999999999999
 21
-28.299999
 31
0.0
  0
LINE
  5
168
330
1F
100
AcDbEntity
  8
0 (1) (1)
  6
K5LT32770
 62
     5
420
      255
370
    60
100
AcDbLine
 10
-20.49999999999999
 20
-31.5
 30
0.0
 11
-20.49999999999999
 21
-42.0
 31
0.0
  0
LINE
  5
169
330
1F
100
AcDbEntity
  8
0 (1) (1)
  6
K5LT32770
 62
     5
420
      255
370
    60
100
AcDbLine
 10
-16.49999999999999
 20
-27.5
 30
0.0
 11
-16.49999999999999
 21
-32.249999
 31
0.0
  0
LINE
  5
16A
330
1F
100
AcDbEntity
  8
0 (1) (1)
  6
K5LT32770
 62
     5
420
      255
370
    60
100
AcDbLine
 10
-11.99999999999999
 20
-35.5
 30
0.0
 11
-11.99999999999999
 21
-40.0
 31
0.0
  0
LINE
  5
16B
330
1F
100
AcDbEntity
  8
0 (1) (1)
  6
K5LT32770
 62
     5
420
      255
370
    60
100
AcDbLine
 10
-5.799998999999994
 20
-43.5
 30
0.0
 11
-5.799998999999994
 21
-45.0
 31
0.0
  0
LINE
  5
16C
330
1F
100
AcDbEntity
  8
0 (1) (1)
  6
K5LT32770
 62
     5
420
      255
370
    60
100
AcDbLine
 10
-4.999999999999995
 20
-39.0
 30
0.0
 11
-4.999999999999995
 21
-43.5
 31
0.0
  0
LINE
  5
16D
330
1F
100
AcDbEntity
  8
0 (1) (1)
  6
K5LT32770
 62
     5
420
      255
370
    60
100
AcDbLine
 10
5.000000000000005
 20
-39.0
 30
0.0
 11
5.000000000000005
 21
-43.5
 31
0.0
  0
LINE
  5
16E
330
1F
100
AcDbEntity
  8
0 (1) (1)
  6
K5LT32770
 62
     5
420
      255
370
    60
100
AcDbLine
 10
5.799999000000019
 20
-43.5
 30
0.0
 11
5.799999000000019
 21
-45.0
 31
0.0
  0
LINE
  5
16F
330
1F
100
AcDbEntity
  8
0 (1) (1)
  6
K5LT32770
 62
     5
420
      255
370
    60
100
AcDbLine
 10
9.500000000000005
 20
-25.6224989991992
 30
0.0
 11
9.500000000000005
 21
-29.87867965644035
 31
0.0
  0
LINE
  5
170
330
1F
100
AcDbEntity
  8
0 (1) (1)
  6
K5LT32770
 62
     5
420
      255
370
    60
100
AcDbLine
 10
10.05000000000001
 20
-34.67132034355965
 30
0.0
 11
10.05000000000001
 21
-38.7
 31
0.0
  0
LINE
  5
171
330
1F
100
AcDbEntity
  8
0 (1) (1)
  6
K5LT32770
 62
     5
420
      255
370
    60
100
AcDbLine
 10
16.50000000000001
 20
-27.5
 30
0.0
 11
16.50000000000001
 21
-32.249999
 31
0.0
  0
LINE
  5
172
330
1F
100
AcDbEntity
  8
0 (1) (1)
  6
K5LT32770
 62
     5
420
      255
370
    60
100
AcDbLine
 10
21.00000000000001
 20
-27.5
 30
0.0
 11
21.00000000000001
 21
-28.299999
 31
0.0
  0
LINE
  5
173
330
1F
100
AcDbEntity
  8
0 (1) (1)
  6
K5LT32770
 62
     5
420
      255
370
    60
100
AcDbLine
 10
22.50000000000001
 20
-28.299999
 30
0.0
 11
22.50000000000001
 21
-42.0
 31
0.0
  0
ARC
  5
174
330
1F
100
AcDbEntity
  8
0 (1) (1)
  6
K5LT32770
 62
     5
420
      255
370
    60
100
AcDbCircle
 10
-19.49999999999999
 20
-42.0
 30
0.0
 40
1.0
100
AcDbArc
 50
180.0
 51
269.9999999999992
  0
ARC
  5
175
330
1F
100
AcDbEntity
  8
0 (1) (1)
  6
K5LT32770
 62
     5
420
      255
370
    60
100
AcDbCircle
 10
-19.49999999999999
 20
-42.0
 30
0.0
 40
3.0
100
AcDbArc
 50
180.0
 51
270.0000000000001
  0
ARC
  5
176
330
1F
100
AcDbEntity
  8
0 (1) (1)
  6
K5LT32770
 62
     5
420
      255
370
    60
100
AcDbCircle
 10
-13.00000199999998
 20
-35.500002
 30
0.0
 40
0.9999999999999956
100
AcDbArc
 50
0.0000874274217293
 51
89.99991257371197
  0
ARC
  5
177
330
1F
100
AcDbEntity
  8
0 (1) (1)
  6
K5LT32770
 62
     5
420
      255
370
    60
100
AcDbCircle
 10
0.0000000000000053
 20
-22.5
 30
0.0
 40
4.999999714352392
100
AcDbArc
 50
220.2159087275188
 51
229.7840912724811
  0
ARC
  5
178
330
1F
100
AcDbEntity
  8
0 (1) (1)
  6
K5LT32770
 62
     5
420
      255
370
    60
100
AcDbCircle
 10
0.0000000000000053
 20
-22.5
 30
0.0
 40
4.99999971435239
100
AcDbArc
 50
310.2159087275189
 51
319.7840903180254
  0
ARC
  5
179
330
1F
100
AcDbEntity
  8
0 (1) (1)
  6
K5LT32770
 62
     5
420
      255
370
    60
100
AcDbCircle
 10
0.0000000000000053
 20
-22.5
 30
0.0
 40
5.000000250760195
100
AcDbArc
 50
175.2159155425227
 51
184.7840844574773
  0
ARC
  5
17A
330
1F
100
AcDbEntity
  8
0 (1) (1)
  6
K5LT32770
 62
     5
420
      255
370
    60
100
AcDbCircle
 10
0.0000000000000053
 20
-22.5
 30
0.0
 40
5.000000250760193
100
AcDbArc
 50
265.2159155425227
 51
274.7840844574773
  0
ARC
  5
17B
330
1F
100
AcDbEntity
  8
0 (1) (1)
  6
K5LT32770
 62
     5
420
      255
370
    60
100
AcDbCircle
 10
0.0000000000000053
 20
-22.5
 30
0.0
 40
5.000000250760194
100
AcDbArc
 50
355.2159155425226
 51
4.784084457477311
  0
ARC
  5
17C
330
1F
100
AcDbEntity
  8
0 (1) (1)
  6
K5LT32770
 62
     5
420
      255
370
    60
100
AcDbCircle
 10
0.0000000000000053
 20
-22.5
 30
0.0
 40
7.999999903104316
100
AcDbArc
 50
189.9999969198937
 51
214.9999982747663
  0
ARC
  5
17D
330
1F
100
AcDbEntity
  8
0 (1) (1)
  6
K5LT32770
 62
     5
420
      255
370
    60
100
AcDbCircle
 10
0.0000000000000053
 20
-22.5
 30
0.0
 40
7.999999428248543
100
AcDbArc
 50
235.0000017252335
 51
260.0000030801061
  0
ARC
  5
17E
330
1F
100
AcDbEntity
  8
0 (1) (1)
  6
K5LT32770
 62
     5
420
      255
370
    60
100
AcDbCircle
 10
0.0000000000000053
 20
-22.5
 30
0.0
 40
7.999999903104313
100
AcDbArc
 50
279.9999969198939
 51
304.9999982747663
  0
ARC
  5
17F
330
1F
100
AcDbEntity
  8
0 (1) (1)
  6
K5LT32770
 62
     5
420
      255
370
    60
100
AcDbCircle
 10
0.0000000000000053
 20
-22.5
 30
0.0
 40
7.999999428248543
100
AcDbArc
 50
324.9999978075982
 51
350.0000030801061
  0
ARC
  5
180
330
1F
100
AcDbEntity
  8
0 (1) (1)
  6
K5LT32770
 62
     5
420
      255
370
    60
100
AcDbCircle
 10
19.50000000000001
 20
-42.0
 30
0.0
 40
3.0
100
AcDbArc
 50
269.9999999999998
 51
0.0
  0
LINE
  5
181
330
1F
100
AcDbEntity
  8
0 (1) (1)
  6
K5LT32770
 62
     5
420
      255
370
    60
100
AcDbLine
 10
1.389185000000003
 20
-14.621538
 30
0.0
 11
0.9511095841667885
 21
-17.10598553735544
 31
0.0
  0
LINE
  5
182
330
1F
100
AcDbEntity
  8
0 (1) (1)
  6
K5LT32770
 62
     5
420
      255
370
    60
100
AcDbLine
 10
4.588612000000017
 20
-15.946784
 30
0.0
 11
3.141607484863338
 21
-18.01331967250511
 31
0.0
  0
LINE
  5
183
330
1F
100
AcDbEntity
  8
0 (1) (1)
  6
K5LT32770
 62
     5
420
      255
370
    60
100
AcDbLine
 10
6.553215999999997
 20
-17.911388
 30
0.0
 11
4.486680327494893
 21
-19.35839251513667
 31
0.0
  0
LINE
  5
184
330
1F
100
AcDbEntity
  8
0 (1) (1)
  6
K5LT32770
 62
     5
420
      255
370
    60
100
AcDbLine
 10
-7.378679656440356
 20
-13.0
 30
0.0
 11
-3.122498999199196
 21
-13.0
 31
0.0
  0
LINE
  5
185
330
1F
100
AcDbEntity
  8
0 (1) (1)
  6
K5LT32770
 62
     5
420
      255
370
    60
100
AcDbLine
 10
3.122498999199207
 20
-13.0
 30
0.0
 11
7.378679656440361
 21
-13.0
 31
0.0
  0
LINE
  5
186
330
1F
100
AcDbEntity
  8
0 (1) (1)
  6
K5LT32770
 62
     5
420
      255
370
    60
100
AcDbLine
 10
-6.553216999999998
 20
-17.911388
 30
0.0
 11
-4.4866803083442
 21
-19.3583926399318
 31
0.0
  0
LINE
  5
187
330
1F
100
AcDbEntity
  8
0 (1) (1)
  6
K5LT32770
 62
     5
420
      255
370
    60
100
AcDbLine
 10
-4.588611999999992
 20
-15.946784
 30
0.0
 11
-3.141607484863316
 21
-18.01331967250511
 31
0.0
  0
LINE
  5
188
330
1F
100
AcDbEntity
  8
0 (1) (1)
  6
K5LT32770
 62
     5
420
      255
370
    60
100
AcDbLine
 10
-1.389184999999993
 20
-14.621538
 30
0.0
 11
-0.9511095841667778
 21
-17.10598553735544
 31
0.0
  0
LINE
  5
189
330
1F
100
AcDbEntity
  8
0 (1) (1)
  6
K5LT32770
 62
     5
420
      255
370
    60
100
AcDbLine
 10
-9.499999999999995
 20
-15.12132034355965
 30
0.0
 11
-9.499999999999995
 21
-19.3775010008008
 31
0.0
  0
LINE
  5
18A
330
1F
100
AcDbEntity
  8
0 (1) (1)
  6
K5LT32770
 62
     5
420
      255
370
    60
100
AcDbLine
 10
9.500000000000005
 20
-15.12132034355965
 30
0.0
 11
9.500000000000005
 21
-19.3775010008008
 31
0.0
  0
ARC
  5
18B
330
1F
100
AcDbEntity
  8
0 (1) (1)
  6
K5LT32770
 62
     5
420
      255
370
    60
100
AcDbCircle
 10
0.0000000000000053
 20
-22.5
 30
0.0
 40
4.999999714352392
100
AcDbArc
 50
40.21590968197472
 51
49.78409031802531
  0
ARC
  5
18C
330
1F
100
AcDbEntity
  8
0 (1) (1)
  6
K5LT32770
 62
     5
420
      255
370
    60
100
AcDbCircle
 10
0.0000000000000053
 20
-22.5
 30
0.0
 40
4.999999714352392
100
AcDbArc
 50
130.2159096819747
 51
139.7840912724812
  0
ARC
  5
18D
330
1F
100
AcDbEntity
  8
0 (1) (1)
  6
K5LT32770
 62
     5
420
      255
370
    60
100
AcDbCircle
 10
0.0000000000000053
 20
-22.5
 30
0.0
 40
5.000000250760192
100
AcDbArc
 50
85.2159155425227
 51
94.78408445747733
  0
ARC
  5
18E
330
1F
100
AcDbEntity
  8
0 (1) (1)
  6
K5LT32770
 62
     5
420
      255
370
    60
100
AcDbCircle
 10
0.0000000000000053
 20
-22.5
 30
0.0
 40
7.999999903104313
100
AcDbArc
 50
9.999996919893782
 51
35.000002192402
  0
ARC
  5
18F
330
1F
100
AcDbEntity
  8
0 (1) (1)
  6
K5LT32770
 62
     5
420
      255
370
    60
100
AcDbCircle
 10
0.0000000000000053
 20
-22.5
 30
0.0
 40
7.999999428248543
100
AcDbArc
 50
54.99999780759803
 51
80.00000308010613
  0
ARC
  5
190
330
1F
100
AcDbEntity
  8
0 (1) (1)
  6
K5LT32770
 62
     5
420
      255
370
    60
100
AcDbCircle
 10
0.0000000000000053
 20
-22.5
 30
0.0
 40
7.999999903104314
100
AcDbArc
 50
99.9999969198938
 51
125.0000021924019
  0
ARC
  5
191
330
1F
100
AcDbEntity
  8
0 (1) (1)
  6
K5LT32770
 62
     5
420
      255
370
    60
100
AcDbCircle
 10
0.0000000000000053
 20
-22.5
 30
0.0
 40
7.999999428248543
100
AcDbArc
 50
145.0000017252335
 51
170.0000030801062
  0
LINE
  5
192
330
1F
100
AcDbEntity
  8
0 (1) (1)
  6
K5LT32770
 62
     5
420
      255
370
    60
100
AcDbLine
 10
-22.49999999999999
 20
-16.700001
 30
0.0
 11
-20.99999999999999
 21
-16.700001
 31
0.0
  0
LINE
  5
193
330
1F
100
AcDbEntity
  8
0 (1) (1)
  6
K5LT32770
 62
     5
420
      255
370
    60
100
AcDbLine
 10
-20.99999999999999
 20
-17.5
 30
0.0
 11
-16.49999999999999
 21
-17.5
 31
0.0
  0
LINE
  5
194
330
1F
100
AcDbEntity
  8
0 (1) (1)
  6
K5LT32770
 62
     5
420
      255
370
    60
100
AcDbLine
 10
-20.99999999999999
 20
-16.700001
 30
0.0
 11
-20.99999999999999
 21
-17.5
 31
0.0
  0
LINE
  5
195
330
1F
100
AcDbEntity
  8
0 (1) (1)
  6
K5LT32770
 62
     5
420
      255
370
    60
100
AcDbLine
 10
-16.49999999999999
 20
-12.75
 30
0.0
 11
-16.49999999999999
 21
-17.5
 31
0.0
  0
LINE
  5
196
330
1F
100
AcDbEntity
  8
0 (1) (1)
  6
K5LT32770
 62
     5
420
      255
370
    60
100
AcDbLine
 10
-22.49999999999999
 20
16.700001
 30
0.0
 11
-22.49999999999999
 21
8.5
 31
0.0
  0
LINE
  5
197
330
1F
100
AcDbEntity
  8
0 (1) (1)
  6
K5LT32770
 62
     5
420
      255
370
    60
100
AcDbLine
 10
21.00000000000001
 20
-16.700001
 30
0.0
 11
22.50000000000001
 21
-16.700001
 31
0.0
  0
LINE
  5
198
330
1F
100
AcDbEntity
  8
0 (1) (1)
  6
K5LT32770
 62
     5
420
      255
370
    60
100
AcDbLine
 10
16.50000000000001
 20
-17.5
 30
0.0
 11
21.00000000000001
 21
-17.5
 31
0.0
  0
LINE
  5
199
330
1F
100
AcDbEntity
  8
0 (1) (1)
  6
K5LT32770
 62
     5
420
      255
370
    60
100
AcDbLine
 10
21.00000000000001
 20
-16.700001
 30
0.0
 11
21.00000000000001
 21
-17.5
 31
0.0
  0
LINE
  5
19A
330
1F
100
AcDbEntity
  8
0 (1) (1)
  6
K5LT32770
 62
     5
420
      255
370
    60
100
AcDbLine
 10
16.50000000000001
 20
-12.75
 30
0.0
 11
16.50000000000001
 21
-17.5
 31
0.0
  0
LINE
  5
19B
330
1F
100
AcDbEntity
  8
0 (1) (1)
  6
K5LT32770
 62
     5
420
      255
370
    60
100
AcDbLine
 10
12.17132034355965
 20
-12.45
 30
0.0
 11
16.2
 21
-12.45
 31
0.0
  0
LINE
  5
19C
330
1F
100
AcDbEntity
  8
0 (1) (1)
  6
K5LT32770
 62
     5
420
      255
370
    60
100
AcDbLine
 10
22.50000000000001
 20
16.700001
 30
0.0
 11
22.50000000000001
 21
8.499999999999988
 31
0.0
  0
LINE
  5
19D
330
1F
100
AcDbEntity
  8
0 (1) (1)
  6
K5LT32770
 62
     5
420
      255
370
    60
100
AcDbLine
 10
-16.2
 20
-12.45
 30
0.0
 11
-12.17132034355965
 21
-12.45
 31
0.0
  0
ARC
  5
19E
330
1F
100
AcDbEntity
  8
0 (1) (1)
  6
K5LT32770
 62
     5
420
      255
370
    60
100
AcDbCircle
 10
-4.199892080799836
 20
-26.05118337565257
 30
0.0
 40
0.5
100
AcDbArc
 50
40.21590872751913
 51
125.0000013106112
  0
ARC
  5
19F
330
1F
100
AcDbEntity
  8
0 (1) (1)
  6
K5LT32770
 62
     5
420
      255
370
    60
100
AcDbCircle
 10
-3.551183375652569
 20
-26.69989208079983
 30
0.0
 40
0.5
100
AcDbArc
 50
324.9999986893887
 51
49.7840912724807
  0
ARC
  5
1A0
330
1F
100
AcDbEntity
  8
0 (1) (1)
  6
K5LT32770
 62
     5
420
      255
370
    60
100
AcDbCircle
 10
-0.45870571724714
 20
-27.98083860584555
 30
0.0
 40
0.5000000000000001
100
AcDbArc
 50
85.21591554252268
 51
169.9999936738315
  0
ARC
  5
1A1
330
1F
100
AcDbEntity
  8
0 (1) (1)
  6
K5LT32770
 62
     5
420
      255
370
    60
100
AcDbCircle
 10
0.4587057172471507
 20
-27.98083860584555
 30
0.0
 40
0.5
100
AcDbArc
 50
10.00000632616849
 51
94.78408445747735
  0
ARC
  5
1A2
330
1F
100
AcDbEntity
  8
0 (1) (1)
  6
K5LT32770
 62
     5
420
      255
370
    60
100
AcDbCircle
 10
3.551183375652575
 20
-26.69989208079983
 30
0.0
 40
0.5
100
AcDbArc
 50
130.2159087275193
 51
215.0000013106113
  0
ARC
  5
1A3
330
1F
100
AcDbEntity
  8
0 (1) (1)
  6
K5LT32770
 62
     5
420
      255
370
    60
100
AcDbCircle
 10
4.199892021642826
 20
-26.05118344561603
 30
0.0
 40
0.5
100
AcDbArc
 50
54.99998773488655
 51
139.7840903180256
  0
ARC
  5
1A4
330
1F
100
AcDbEntity
  8
0 (1) (1)
  6
K5LT32770
 62
     5
420
      255
370
    60
100
AcDbCircle
 10
5.480838605845554
 20
-22.95870571724715
 30
0.0
 40
0.5000000000000001
100
AcDbArc
 50
175.2159155425229
 51
259.9999936738313
  0
ARC
  5
1A5
330
1F
100
AcDbEntity
  8
0 (1) (1)
  6
K5LT32770
 62
     5
420
      255
370
    60
100
AcDbCircle
 10
5.480838605845554
 20
-22.04129428275286
 30
0.0
 40
0.5
100
AcDbArc
 50
100.0000063261686
 51
184.7840844574771
  0
ARC
  5
1A6
330
1F
100
AcDbEntity
  8
0 (1) (1)
  6
K5LT32770
 62
     5
420
      255
370
    60
100
AcDbCircle
 10
4.199892021642822
 20
-18.94881655438397
 30
0.0
 40
0.4999999999999999
100
AcDbArc
 50
220.2159096819743
 51
305.0000122651133
  0
ARC
  5
1A7
330
1F
100
AcDbEntity
  8
0 (1) (1)
  6
K5LT32770
 62
     5
420
      255
370
    60
100
AcDbCircle
 10
3.551183445616041
 20
-18.30010797835718
 30
0.0
 40
0.5
100
AcDbArc
 50
144.9999877348864
 51
229.7840903180254
  0
ARC
  5
1A8
330
1F
100
AcDbEntity
  8
0 (1) (1)
  6
K5LT32770
 62
     5
420
      255
370
    60
100
AcDbCircle
 10
0.4587057172471507
 20
-17.01916139415445
 30
0.0
 40
0.5000000000000001
100
AcDbArc
 50
265.2159155425225
 51
349.9999936738315
  0
ARC
  5
1A9
330
1F
100
AcDbEntity
  8
0 (1) (1)
  6
K5LT32770
 62
     5
420
      255
370
    60
100
AcDbCircle
 10
-0.45870571724714
 20
-17.01916139415445
 30
0.0
 40
0.5
100
AcDbArc
 50
190.0000063261684
 51
274.7840844574773
  0
ARC
  5
1AA
330
1F
100
AcDbEntity
  8
0 (1) (1)
  6
K5LT32770
 62
     5
420
      255
370
    60
100
AcDbCircle
 10
-3.551183445616021
 20
-18.30010797835718
 30
0.0
 40
0.5
100
AcDbArc
 50
310.2159096819744
 51
35.00001226511363
  0
ARC
  5
1AB
330
1F
100
AcDbEntity
  8
0 (1) (1)
  6
K5LT32770
 62
     5
420
      255
370
    60
100
AcDbCircle
 10
-4.199892080799836
 20
-18.94881662434743
 30
0.0
 40
0.5
100
AcDbArc
 50
234.9999986893888
 51
319.7840912724808
  0
ARC
  5
1AC
330
1F
100
AcDbEntity
  8
0 (1) (1)
  6
K5LT32770
 62
     5
420
      255
370
    60
100
AcDbCircle
 10
-5.480838605845543
 20
-22.04129428275285
 30
0.0
 40
0.5
100
AcDbArc
 50
355.215915542522
 51
79.9999936738314
  0
ARC
  5
1AD
330
1F
100
AcDbEntity
  8
0 (1) (1)
  6
K5LT32770
 62
     5
420
      255
370
    60
100
AcDbCircle
 10
-5.480838605845543
 20
-22.95870571724715
 30
0.0
 40
0.5
100
AcDbArc
 50
280.0000063261686
 51
4.78408445747796
  0
LINE
  5
1AE
330
1F
100
AcDbEntity
  8
0 (1) (1)
  6
K5LT32770
 62
     5
420
      255
370
    60
100
AcDbLine
 10
-9.499999999999995
 20
-25.6224989991992
 30
0.0
 11
-9.499999999999995
 21
-29.87867965644036
 31
0.0
  0
LINE
  5
1AF
330
1F
100
AcDbEntity
  8
0 (1) (1)
  6
K5LT32770
 62
     5
420
      255
370
    60
100
AcDbLine
 10
-9.499999999999995
 20
-29.87867965644036
 30
0.0
 11
-12.17131934355963
 21
-32.549999
 31
0.0
  0
LINE
  5
1B0
330
1F
100
AcDbEntity
  8
0 (1) (1)
  6
K5LT32770
 62
     5
420
      255
370
    60
100
AcDbLine
 10
7.378679656440361
 20
-32.0
 30
0.0
 11
10.05000000000001
 21
-34.67132034355965
 31
0.0
  0
LINE
  5
1B1
330
1F
100
AcDbEntity
  8
0 (1) (1)
  6
K5LT32770
 62
     5
420
      255
370
    60
100
AcDbLine
 10
9.500000000000005
 20
-29.87867965644035
 30
0.0
 11
12.17131934355966
 21
-32.549999
 31
0.0
  0
LINE
  5
1B2
330
1F
100
AcDbEntity
  8
0 (1) (1)
  6
K5LT32770
 62
     5
420
      255
370
    60
100
AcDbLine
 10
9.500000000000005
 20
-15.12132034355965
 30
0.0
 11
12.17132034355965
 21
-12.45
 31
0.0
  0
LINE
  5
1B3
330
1F
100
AcDbEntity
  8
0 (1) (1)
  6
K5LT32770
 62
     5
420
      255
370
    60
100
AcDbLine
 10
-7.378679656440356
 20
-13.0
 30
0.0
 11
-10.6357864376269
 21
-9.742893218813457
 31
0.0
  0
LINE
  5
1B4
330
1F
100
AcDbEntity
  8
0 (1) (1)
  6
K5LT32770
 62
     5
420
      255
370
    60
100
AcDbLine
 10
-12.17132034355964
 20
-12.45
 30
0.0
 11
-9.499999999999995
 21
-15.12132034355965
 31
0.0
  0
ARC
  5
1B5
330
1F
100
AcDbEntity
  8
0 (1) (1)
  6
K5LT32770
 62
     5
420
      255
370
    60
100
AcDbCircle
 10
-16.2
 20
-12.75
 30
0.0
 40
0.3
100
AcDbArc
 50
90.0
 51
180.0
  0
ARC
  5
1B6
330
1F
100
AcDbEntity
  8
0 (1) (1)
  6
K5LT32770
 62
     5
420
      255
370
    60
100
AcDbCircle
 10
16.2
 20
-12.75
 30
0.0
 40
0.3
100
AcDbArc
 50
0.0
 51
90.0
  0
ARC
  5
1B7
330
1F
100
AcDbEntity
  8
0 (1) (1)
  6
K5LT32770
 62
     5
420
      255
370
    60
100
AcDbCircle
 10
16.2
 20
-32.249999
 30
0.0
 40
0.3
100
AcDbArc
 50
270.0
 51
0.0
  0
ARC
  5
1B8
330
1F
100
AcDbEntity
  8
0 (1) (1)
  6
K5LT32770
 62
     5
420
      255
370
    60
100
AcDbCircle
 10
9.75000000000002
 20
-38.7
 30
0.0
 40
0.3
100
AcDbArc
 50
270.0
 51
0.0
  0
ARC
  5
1B9
330
1F
100
AcDbEntity
  8
0 (1) (1)
  6
K5LT32770
 62
     5
420
      255
370
    60
100
AcDbCircle
 10
-9.749998999999994
 20
-38.7
 30
0.0
 40
0.3
100
AcDbArc
 50
180.0
 51
270.0
  0
ARC
  5
1BA
330
1F
100
AcDbEntity
  8
0 (1) (1)
  6
K5LT32770
 62
     5
420
      255
370
    60
100
AcDbCircle
 10
-16.2
 20
-32.249999
 30
0.0
 40
0.3
100
AcDbArc
 50
180.0
 51
270.0
  0
LINE
  5
1BB
330
1F
100
AcDbEntity
  8
0 (1) (1)
  6
K5LT32770
 62
     5
420
      255
370
    60
100
AcDbLine
 10
-10.04999899999999
 20
-34.67131934355965
 30
0.0
 11
-10.04999899999999
 21
-38.7
 31
0.0
  0
LINE
  5
1BC
330
1F
100
AcDbEntity
  8
0 (1) (1)
  6
K5LT32770
 62
     5
420
      255
370
    60
100
AcDbLine
 10
-10.04999899999999
 20
-34.67131934355965
 30
0.0
 11
-7.37867965644035
 21
-32.0
 31
0.0
  0
LINE
  5
1BD
330
1F
100
AcDbEntity
  8
0 (1) (1)
  6
K5LT32768
 62
     5
420
      255
370
    60
100
AcDbLine
 10
-9.46242942258563
 20
-22.5
 30
0.0
 11
-9.96242942258563
 21
-23.36602540378444
 31
0.0
  0
LINE
  5
1BE
330
1F
100
AcDbEntity
  8
0 (1) (1)
  6
K5LT32768
 62
     5
420
      255
370
    60
100
AcDbLine
 10
-9.46242942258563
 20
-22.5
 30
0.0
 11
-9.96242942258563
 21
-21.63397459621556
 31
0.0
  0
ARC
  5
1BF
330
1F
100
AcDbEntity
  8
0 (1) (1)
  6
K5LT32770
 62
     5
420
      255
370
    60
100
AcDbCircle
 10
0.0000000000000053
 20
-22.5
 30
0.0
 40
10.0
100
AcDbArc
 50
161.8051276612333
 51
175.0318164639297
  0
ARC
  5
1C0
330
1F
100
AcDbEntity
  8
0 (1) (1)
  6
K5LT32770
 62
     5
420
      255
370
    60
100
AcDbCircle
 10
0.0000000000000053
 20
-22.5
 30
0.0
 40
10.0
100
AcDbArc
 50
184.9681835360703
 51
198.1948723387668
  0
ARC
  5
1C1
330
1F
100
AcDbEntity
  8
0 (1) (1)
  6
K5LT32770
 62
     5
420
      255
370
    60
100
AcDbCircle
 10
0.0000000000000053
 20
-22.5
 30
0.0
 40
10.0
100
AcDbArc
 50
274.9681835360703
 51
288.1948723387668
  0
ARC
  5
1C2
330
1F
100
AcDbEntity
  8
0 (1) (1)
  6
K5LT32770
 62
     5
420
      255
370
    60
100
AcDbCircle
 10
0.0000000000000053
 20
-22.5
 30
0.0
 40
10.0
100
AcDbArc
 50
4.968183536070415
 51
18.19487233876679
  0
LINE
  5
1C3
330
1F
100
AcDbEntity
  8
0 (1) (1)
  6
K5LT32768
 62
     5
420
      255
370
    60
100
AcDbLine
 10
0.0000000000000053
 20
-31.96242942258564
 30
0.0
 11
0.8660254037844464
 21
-32.46242942258564
 31
0.0
  0
LINE
  5
1C4
330
1F
100
AcDbEntity
  8
0 (1) (1)
  6
K5LT32768
 62
     5
420
      255
370
    60
100
AcDbLine
 10
0.0000000000000053
 20
-31.96242942258564
 30
0.0
 11
-0.8660254037844357
 21
-32.46242942258564
 31
0.0
  0
LINE
  5
1C5
330
1F
100
AcDbEntity
  8
0 (1) (1)
  6
K5LT32768
 62
     5
420
      255
370
    60
100
AcDbLine
 10
9.462429422585641
 20
-22.5
 30
0.0
 11
9.962429422585641
 21
-21.63397459621556
 31
0.0
  0
LINE
  5
1C6
330
1F
100
AcDbEntity
  8
0 (1) (1)
  6
K5LT32768
 62
     5
420
      255
370
    60
100
AcDbLine
 10
9.462429422585641
 20
-22.5
 30
0.0
 11
9.962429422585641
 21
-23.36602540378444
 31
0.0
  0
ARC
  5
1C7
330
1F
100
AcDbEntity
  8
0 (1) (1)
  6
K5LT32770
 62
     5
420
      255
370
    60
100
AcDbCircle
 10
0.0000000000000053
 20
-22.5
 30
0.0
 40
9.999999999999998
100
AcDbArc
 50
251.8051276612332
 51
265.0318164639296
  0
ARC
  5
1C8
330
1F
100
AcDbEntity
  8
0 (1) (1)
  6
K5LT32770
 62
     5
420
      255
370
    60
100
AcDbCircle
 10
0.0000000000000053
 20
-22.5
 30
0.0
 40
10.0
100
AcDbArc
 50
341.8051276612332
 51
355.0318164639297
  0
LINE
  5
1C9
330
1F
100
AcDbEntity
  8
0 (1) (1)
  6
K5LT32770
 62
     5
420
      255
370
    60
100
AcDbLine
 10
-10.99999999999999
 20
-41.0
 30
0.0
 11
-8.999999999999995
 21
-41.0
 31
0.0
  0
ARC
  5
1CA
330
1F
100
AcDbEntity
  8
0 (1) (1)
  6
K5LT32770
 62
     5
420
      255
370
    60
100
AcDbCircle
 10
-10.99999999999999
 20
-40.0
 30
0.0
 40
1.0
100
AcDbArc
 50
180.0
 51
270.0
  0
ARC
  5
1CB
330
1F
100
AcDbEntity
  8
0 (1) (1)
  6
K5LT32770
 62
     5
420
      255
370
    60
100
AcDbCircle
 10
-8.999999999999995
 20
-42.0
 30
0.0
 40
1.0
100
AcDbArc
 50
270.0
 51
90.0
  0
LINE
  5
1CC
330
1F
100
AcDbEntity
  8
0 (1) (1)
  6
K5LT32770
 62
     5
420
      255
370
    60
100
AcDbLine
 10
-18.49999999999999
 20
-33.5
 30
0.0
 11
-18.49999999999999
 21
-31.5
 31
0.0
  0
ARC
  5
1CD
330
1F
100
AcDbEntity
  8
0 (1) (1)
  6
K5LT32770
 62
     5
420
      255
370
    60
100
AcDbCircle
 10
-17.49999999999999
 20
-33.5
 30
0.0
 40
1.0
100
AcDbArc
 50
180.0
 51
270.0
  0
ARC
  5
1CE
330
1F
100
AcDbEntity
  8
0 (1) (1)
  6
K5LT32770
 62
     5
420
      255
370
    60
100
AcDbCircle
 10
-19.49999999999999
 20
-31.5
 30
0.0
 40
1.0
100
AcDbArc
 50
0.0
 51
180.0
  0
LINE
  5
1CF
330
1F
100
AcDbEntity
  8
0 (1) (1)
  6
K5LT32770
 62
     5
420
      255
370
    60
100
AcDbLine
 10
17.50000000000001
 20
-34.49999999999999
 30
0.0
 11
13.00000000000001
 21
-34.49999999999999
 31
0.0
  0
LINE
  5
1D0
330
1F
100
AcDbEntity
  8
0 (1) (1)
  6
K5LT32770
 62
     5
420
      255
370
    60
100
AcDbLine
 10
12.00000000000002
 20
-35.49999999999999
 30
0.0
 11
12.00000000000002
 21
-39.99999999999999
 31
0.0
  0
ARC
  5
1D1
330
1F
100
AcDbEntity
  8
0 (1) (1)
  6
K5LT32770
 62
     5
420
      255
370
    60
100
AcDbCircle
 10
19.50000000000001
 20
-41.99999999999999
 30
0.0
 40
1.0
100
AcDbArc
 50
270.0000000000008
 51
0.0
  0
ARC
  5
1D2
330
1F
100
AcDbEntity
  8
0 (1) (1)
  6
K5LT32770
 62
     5
420
      255
370
    60
100
AcDbCircle
 10
13.00000199999999
 20
-35.50000199999999
 30
0.0
 40
0.9999999999999953
100
AcDbArc
 50
90.00008742628772
 51
179.9999125725783
  0
ARC
  5
1D3
330
1F
100
AcDbEntity
  8
0 (1) (1)
  6
K5LT32770
 62
     5
420
      255
370
    60
100
AcDbCircle
 10
11.00000000000002
 20
-39.99999999999999
 30
0.0
 40
1.0
100
AcDbArc
 50
270.0
 51
0.0
  0
ARC
  5
1D4
330
1F
100
AcDbEntity
  8
0 (1) (1)
  6
K5LT32770
 62
     5
420
      255
370
    60
100
AcDbCircle
 10
17.50000000000001
 20
-33.49999999999999
 30
0.0
 40
1.0
100
AcDbArc
 50
270.0
 51
0.0
  0
LINE
  5
1D5
330
1F
100
AcDbEntity
  8
0 (1) (1)
  6
K5LT32770
 62
     5
420
      255
370
    60
100
AcDbLine
 10
19.50000000000001
 20
-42.99999999999999
 30
0.0
 11
9.000000000000018
 21
-43.0
 31
0.0
  0
LINE
  5
1D6
330
1F
100
AcDbEntity
  8
0 (1) (1)
  6
K5LT32770
 62
     5
420
      255
370
    60
100
AcDbLine
 10
11.00000000000002
 20
-40.99999999999999
 30
0.0
 11
9.00000000000002
 21
-40.99999999999999
 31
0.0
  0
ARC
  5
1D7
330
1F
100
AcDbEntity
  8
0 (1) (1)
  6
K5LT32770
 62
     5
420
      255
370
    60
100
AcDbCircle
 10
9.00000000000002
 20
-42.0
 30
0.0
 40
1.0
100
AcDbArc
 50
90.0
 51
270.0
  0
LINE
  5
1D8
330
1F
100
AcDbEntity
  8
0 (1) (1)
  6
K5LT32770
 62
     5
420
      255
370
    60
100
AcDbLine
 10
20.50000000000001
 20
-31.49999999999999
 30
0.0
 11
20.50000000000001
 21
-41.99999999999999
 31
0.0
  0
LINE
  5
1D9
330
1F
100
AcDbEntity
  8
0 (1) (1)
  6
K5LT32770
 62
     5
420
      255
370
    60
100
AcDbLine
 10
18.50000000000001
 20
-33.49999999999999
 30
0.0
 11
18.5
 21
-31.49999999999999
 31
0.0
  0
ARC
  5
1DA
330
1F
100
AcDbEntity
  8
0 (1) (1)
  6
K5LT32770
 62
     5
420
      255
370
    60
100
AcDbCircle
 10
19.50000000000001
 20
-31.49999999999999
 30
0.0
 40
1.0
100
AcDbArc
 50
0.0
 51
180.0
  0
ARC
  5
1DC
330
1F
100
AcDbEntity
  8
0 (1) (1)
  6
K5LT_BASIC
 62
     5
420
      255
370
    60
100
AcDbCircle
 10
0.0000000000000053
 20
22.5
 30
0.0
 40
10.0
100
AcDbArc
 50
251.8051276612332
 51
288.1948723387668
  0
ARC
  5
1DD
330
1F
100
AcDbEntity
  8
0 (1) (1)
  6
K5LT_BASIC
 62
     5
420
      255
370
    60
100
AcDbCircle
 10
0.0000000000000053
 20
-22.5
 30
0.0
 40
10.0
100
AcDbArc
 50
71.80512766123321
 51
108.1948723387668
  0
LINE
  5
1DE
330
1F
100
AcDbEntity
  8
0 (1) (1)
  6
K5LT_BASIC
 62
     5
420
      255
370
    60
100
AcDbLine
 10
-11.34289321881345
 20
-9.450000000000003
 30
0.0
 11
-17.49999999999999
 21
-9.450000000000003
 31
0.0
  0
LINE
  5
1DF
330
1F
100
AcDbEntity
  8
0 (1) (1)
  6
K5LT_BASIC
 62
     5
420
      255
370
    60
100
AcDbLine
 10
-18.49999999999999
 20
-8.450000000000003
 30
0.0
 11
-18.49999999999999
 21
8.45
 31
0.0
  0
LINE
  5
1E0
330
1F
100
AcDbEntity
  8
0 (1) (1)
  6
K5LT_BASIC
 62
     5
420
      255
370
    60
100
AcDbLine
 10
-11.34289321881345
 20
9.45
 30
0.0
 11
-17.49999999999999
 21
9.45
 31
0.0
  0
ARC
  5
1E1
330
1F
100
AcDbEntity
  8
0 (1) (1)
  6
K5LT_BASIC
 62
     5
420
      255
370
    60
100
AcDbCircle
 10
-17.5
 20
8.449999999999996
 30
0.0
 40
1.000000000000004
100
AcDbArc
 50
89.99999999999982
 51
179.9999999999998
  0
ARC
  5
1E2
330
1F
100
AcDbEntity
  8
0 (1) (1)
  6
K5LT_BASIC
 62
     5
420
      255
370
    60
100
AcDbCircle
 10
-17.49999999999999
 20
-8.45
 30
0.0
 40
1.0
100
AcDbArc
 50
180.0000000000002
 51
270.0
  0
LINE
  5
1E4
330
1F
100
AcDbEntity
  8
0 (1) (1)
  6
K5LT32771
 62
     5
420
      255
370
    60
100
AcDbLine
 10
-21.49999999999999
 20
-8.5
 30
0.0
 11
-21.49999999999999
 21
8.5
 31
0.0
  0
LINE
  5
1E5
330
1F
100
AcDbEntity
  8
0 (1) (1)
  6
K5LT32771
 62
     5
420
      255
370
    60
100
AcDbLine
 10
-21.49999999999999
 20
-8.5
 30
0.0
 11
-22.49999999999999
 21
-8.5
 31
0.0
  0
LINE
  5
1E6
330
1F
100
AcDbEntity
  8
0 (1) (1)
  6
K5LT32771
 62
     5
420
      255
370
    60
100
AcDbLine
 10
-21.49999999999999
 20
8.5
 30
0.0
 11
-22.49999999999999
 21
8.5
 31
0.0
  0
LINE
  5
1E7
330
1F
100
AcDbEntity
  8
0 (1) (1)
  6
K5LT32771
 62
     5
420
      255
370
    60
100
AcDbLine
 10
21.49999999999999
 20
-8.500000000000012
 30
0.0
 11
21.5
 21
8.499999999999988
 31
0.0
  0
LINE
  5
1E8
330
1F
100
AcDbEntity
  8
0 (1) (1)
  6
K5LT32771
 62
     5
420
      255
370
    60
100
AcDbLine
 10
21.49999999999999
 20
-8.500000000000012
 30
0.0
 11
22.49999999999999
 21
-8.500000000000012
 31
0.0
  0
LINE
  5
1E9
330
1F
100
AcDbEntity
  8
0 (1) (1)
  6
K5LT32771
 62
     5
420
      255
370
    60
100
AcDbLine
 10
21.5
 20
8.499999999999988
 30
0.0
 11
22.5
 21
8.499999999999988
 31
0.0
  0
LINE
  5
1EA
330
1F
100
AcDbEntity
  8
0 (1) (1)
  6
K5LT32770
 62
     5
420
      255
370
    60
100
AcDbLine
 10
-22.49999999999999
 20
-8.5
 30
0.0
 11
-22.49999999999999
 21
-16.700001
 31
0.0
  0
LINE
  5
1EB
330
1F
100
AcDbEntity
  8
0 (1) (1)
  6
K5LT32770
 62
     5
420
      255
370
    60
100
AcDbLine
 10
22.50000000000001
 20
-8.500000000000014
 30
0.0
 11
22.50000000000001
 21
-16.700001
 31
0.0
  0
ARC
  5
1EC
330
1F
100
AcDbEntity
  8
0 (1) (1)
  6
K5LT_BASIC
 62
     5
420
      255
370
    60
100
AcDbCircle
 10
-11.34289321881345
 20
10.45
 30
0.0
 40
1.0
100
AcDbArc
 50
270.0
 51
315.0
  0
ARC
  5
1ED
330
1F
100
AcDbEntity
  8
0 (1) (1)
  6
K5LT_BASIC
 62
     5
420
      255
370
    60
100
AcDbCircle
 10
-11.34289321881345
 20
-10.45
 30
0.0
 40
1.0
100
AcDbArc
 50
45.0
 51
90.0
  0
LINE
  5
1EE
330
1F
100
AcDbEntity
  8
0 (1) (1)
  6
K5LT_BASIC
 62
     5
420
      255
370
    60
100
AcDbLine
 10
11.34289321881344
 20
-9.45000000000001
 30
0.0
 11
17.49999999999999
 21
-9.450000000000014
 31
0.0
  0
LINE
  5
1EF
330
1F
100
AcDbEntity
  8
0 (1) (1)
  6
K5LT_BASIC
 62
     5
420
      255
370
    60
100
AcDbLine
 10
18.49999999999999
 20
-8.450000000000014
 30
0.0
 11
18.5
 21
8.449999999999989
 31
0.0
  0
LINE
  5
1F0
330
1F
100
AcDbEntity
  8
0 (1) (1)
  6
K5LT_BASIC
 62
     5
420
      255
370
    60
100
AcDbLine
 10
11.34289321881346
 20
9.449999999999992
 30
0.0
 11
17.5
 21
9.449999999999989
 31
0.0
  0
ARC
  5
1F1
330
1F
100
AcDbEntity
  8
0 (1) (1)
  6
K5LT_BASIC
 62
     5
420
      255
370
    60
100
AcDbCircle
 10
17.5
 20
8.449999999999985
 30
0.0
 40
1.000000000000004
100
AcDbArc
 50
0.0
 51
90.0
  0
ARC
  5
1F2
330
1F
100
AcDbEntity
  8
0 (1) (1)
  6
K5LT_BASIC
 62
     5
420
      255
370
    60
100
AcDbCircle
 10
17.49999999999999
 20
-8.45000000000001
 30
0.0
 40
1.0
100
AcDbArc
 50
269.9999999999998
 51
0.0
  0
ARC
  5
1F3
330
1F
100
AcDbEntity
  8
0 (1) (1)
  6
K5LT_BASIC
 62
     5
420
      255
370
    60
100
AcDbCircle
 10
11.34289321881346
 20
10.44999999999999
 30
0.0
 40
1.0
100
AcDbArc
 50
224.9999999999999
 51
270.0
  0
ARC
  5
1F4
330
1F
100
AcDbEntity
  8
0 (1) (1)
  6
K5LT_BASIC
 62
     5
420
      255
370
    60
100
AcDbCircle
 10
11.34289321881344
 20
-10.45000000000001
 30
0.0
 40
1.0
100
AcDbArc
 50
90.0
 51
134.9999999999999
  0
LINE
  5
1F5
330
1F
100
AcDbEntity
  8
0 (1) (1)
  6
K5LT32770
 62
     5
420
      255
370
    60
100
AcDbLine
 10
7.378679656440349
 20
-13.0
 30
0.0
 11
10.6357864376269
 21
-9.742893218813462
 31
0.0
  0
LINE
  5
1F6
330
1F
100
AcDbEntity
  8
0 (1) (1)
  6
K5LT32770
 62
     5
420
      255
370
    60
100
AcDbLine
 10
7.378679656440363
 20
13.0
 30
0.0
 11
10.63578643762691
 21
9.742893218813446
 31
0.0
  0
ENDSEC
  0
SECTION
  2
OBJECTS
  0
DICTIONARY
  5
C
330
0
100
AcDbDictionary
281
     1
  3
ACAD_GROUP
350
D
  3
ACAD_LAYOUT
350
1A
  3
ACAD_MLEADERSTYLE
350
1F8
  3
ACAD_MLINESTYLE
350
17
  3
ACAD_PLOTSETTINGS
350
19
  3
ACAD_PLOTSTYLENAME
350
E
  3
ACAD_SCALELIST
350
3B
  3
ACAD_TABLESTYLE
350
1F7
  3
ACAD_VISUALSTYLE
350
2A
  0
DICTIONARY
  5
D
102
{ACAD_REACTORS
330
C
102
}
330
C
100
AcDbDictionary
281
     1
  0
DICTIONARY
  5
1A
102
{ACAD_REACTORS
330
C
102
}
330
C
100
AcDbDictionary
281
     1
  3
Layout1
350
1E
  3
Layout2
350
26
  3
Model
350
22
  0
DICTIONARY
  5
1F8
102
{ACAD_REACTORS
330
C
102
}
330
C
100
AcDbDictionary
281
     1
  0
DICTIONARY
  5
17
102
{ACAD_REACTORS
330
C
102
}
330
C
100
AcDbDictionary
281
     1
  3
Standard
350
18
  0
DICTIONARY
  5
19
102
{ACAD_REACTORS
330
C
102
}
330
C
100
AcDbDictionary
281
     1
  0
ACDBDICTIONARYWDFLT
  5
E
102
{ACAD_REACTORS
330
C
102
}
330
C
100
AcDbDictionary
281
     1
  3
Normal
350
F
100
AcDbDictionaryWithDefault
340
F
  0
DICTIONARY
  5
3B
102
{ACAD_REACTORS
330
C
102
}
330
C
100
AcDbDictionary
281
     1
  3
A0
350
3C
  3
A1
350
3D
  3
A2
350
3E
  3
A3
350
3F
  3
A4
350
40
  3
A5
350
41
  3
A6
350
42
  3
A7
350
43
  3
A8
350
44
  3
A9
350
45
  3
B0
350
46
  3
B1
350
47
  3
B2
350
48
  3
B3
350
49
  3
B4
350
4A
  3
B5
350
4B
  3
B6
350
4C
  3
B7
350
4D
  3
B8
350
4E
  3
B9
350
4F
  3
C0
350
50
  3
C1
350
51
  3
C2
350
52
  3
C3
350
53
  3
C4
350
54
  3
C5
350
55
  3
C6
350
56
  3
C7
350
57
  3
C8
350
58
  3
C9
350
59
  3
D0
350
5A
  3
D1
350
5B
  3
D2
350
5C
  0
DICTIONARY
  5
1F7
102
{ACAD_REACTORS
330
C
102
}
330
C
100
AcDbDictionary
281
     1
  0
DICTIONARY
  5
2A
102
{ACAD_REACTORS
330
C
102
}
330
C
100
AcDbDictionary
281
     1
  3
2dWireframe
350
2F
  3
3D Hidden
350
31
  3
3dWireframe
350
30
  3
Basic
350
32
  3
Brighten
350
36
  3
ColorChange
350
3A
  3
Conceptual
350
34
  3
Dim
350
35
  3
Facepattern
350
39
  3
Flat
350
2B
  3
FlatWithEdges
350
2C
  3
Gouraud
350
2D
  3
GouraudWithEdges
350
2E
  3
Linepattern
350
38
  3
Realistic
350
33
  3
Thicken
350
37
  0
LAYOUT
  5
1E
102
{ACAD_REACTORS
330
1A
102
}
330
1A
100
AcDbPlotSettings
  1

  2
none_device
  4

  6

 40
0.0
 41
0.0
 42
0.0
 43
0.0
 44
0.0
 45
0.0
 46
0.0
 47
0.0
 48
0.0
 49
0.0
140
0.0
141
0.0
142
1.0
143
1.0
 70
   688
 72
     0
 73
     0
 74
     5
  7

 75
    16
 76
     0
 77
     2
 78
   300
147
1.0
148
0.0
149
0.0
100
AcDbLayout
  1
Layout1
 70
     1
 71
     1
 10
0.0
 20
0.0
 11
420.0
 21
297.0
 12
0.0
 22
0.0
 32
0.0
 14
1.000000000000000E+20
 24
1.000000000000000E+20
 34
1.000000000000000E+20
 15
-1.000000000000000E+20
 25
-1.000000000000000E+20
 35
-1.000000000000000E+20
146
0.0
 13
0.0
 23
0.0
 33
0.0
 16
1.0
 26
0.0
 36
0.0
 17
0.0
 27
1.0
 37
0.0
 76
     0
330
1B
  0
LAYOUT
  5
26
102
{ACAD_REACTORS
330
1A
102
}
330
1A
100
AcDbPlotSettings
  1

  2
none_device
  4

  6

 40
0.0
 41
0.0
 42
0.0
 43
0.0
 44
0.0
 45
0.0
 46
0.0
 47
0.0
 48
0.0
 49
0.0
140
0.0
141
0.0
142
1.0
143
1.0
 70
   688
 72
     0
 73
     0
 74
     5
  7

 75
    16
 76
     0
 77
     2
 78
   300
147
1.0
148
0.0
149
0.0
100
AcDbLayout
  1
Layout2
 70
     1
 71
     2
 10
0.0
 20
0.0
 11
0.0
 21
0.0
 12
0.0
 22
0.0
 32
0.0
 14
0.0
 24
0.0
 34
0.0
 15
0.0
 25
0.0
 35
0.0
146
0.0
 13
0.0
 23
0.0
 33
0.0
 16
1.0
 26
0.0
 36
0.0
 17
0.0
 27
1.0
 37
0.0
 76
     0
330
23
  0
LAYOUT
  5
22
102
{ACAD_REACTORS
330
1A
102
}
330
1A
100
AcDbPlotSettings
  1

  2
none_device
  4

  6

 40
0.0
 41
0.0
 42
0.0
 43
0.0
 44
0.0
 45
0.0
 46
0.0
 47
0.0
 48
0.0
 49
0.0
140
0.0
141
0.0
142
1.0
143
1.0
 70
  1712
 72
     0
 73
     0
 74
     0
  7

 75
     0
 76
     0
 77
     2
 78
   300
147
1.0
148
0.0
149
0.0
100
AcDbLayout
  1
Model
 70
     1
 71
     0
 10
0.0
 20
0.0
 11
420.0
 21
297.0
 12
0.0
 22
0.0
 32
0.0
 14
1.000000000000000E+20
 24
1.000000000000000E+20
 34
1.000000000000000E+20
 15
-1.000000000000000E+20
 25
-1.000000000000000E+20
 35
-1.000000000000000E+20
146
0.0
 13
0.0
 23
0.0
 33
0.0
 16
1.0
 26
0.0
 36
0.0
 17
0.0
 27
1.0
 37
0.0
 76
     0
330
1F
331
29
  0
MLINESTYLE
  5
18
102
{ACAD_REACTORS
330
17
102
}
330
17
100
AcDbMlineStyle
  2
Standard
 70
     0
  3

 62
   256
 51
90.0
 52
90.0
 71
     2
 49
0.5
 62
   256
  6
BYLAYER
 49
-0.5
 62
   256
  6
BYLAYER
  0
ACDBPLACEHOLDER
  5
F
102
{ACAD_REACTORS
330
E
102
}
330
E
  0
SCALE
  5
3C
102
{ACAD_REACTORS
330
3B
102
}
330
3B
100
AcDbScale
 70
     0
300
1:1
140
1.0
141
1.0
290
     1
  0
SCALE
  5
3D
102
{ACAD_REACTORS
330
3B
102
}
330
3B
100
AcDbScale
 70
     0
300
1:2
140
1.0
141
2.0
290
     0
  0
SCALE
  5
3E
102
{ACAD_REACTORS
330
3B
102
}
330
3B
100
AcDbScale
 70
     0
300
1:4
140
1.0
141
4.0
290
     0
  0
SCALE
  5
3F
102
{ACAD_REACTORS
330
3B
102
}
330
3B
100
AcDbScale
 70
     0
300
1:5
140
1.0
141
5.0
290
     0
  0
SCALE
  5
40
102
{ACAD_REACTORS
330
3B
102
}
330
3B
100
AcDbScale
 70
     0
300
1:8
140
1.0
141
8.0
290
     0
  0
SCALE
  5
41
102
{ACAD_REACTORS
330
3B
102
}
330
3B
100
AcDbScale
 70
     0
300
1:10
140
1.0
141
10.0
290
     0
  0
SCALE
  5
42
102
{ACAD_REACTORS
330
3B
102
}
330
3B
100
AcDbScale
 70
     0
300
1:16
140
1.0
141
16.0
290
     0
  0
SCALE
  5
43
102
{ACAD_REACTORS
330
3B
102
}
330
3B
100
AcDbScale
 70
     0
300
1:20
140
1.0
141
20.0
290
     0
  0
SCALE
  5
44
102
{ACAD_REACTORS
330
3B
102
}
330
3B
100
AcDbScale
 70
     0
300
1:30
140
1.0
141
30.0
290
     0
  0
SCALE
  5
45
102
{ACAD_REACTORS
330
3B
102
}
330
3B
100
AcDbScale
 70
     0
300
1:40
140
1.0
141
40.0
290
     0
  0
SCALE
  5
46
102
{ACAD_REACTORS
330
3B
102
}
330
3B
100
AcDbScale
 70
     0
300
1:50
140
1.0
141
50.0
290
     0
  0
SCALE
  5
47
102
{ACAD_REACTORS
330
3B
102
}
330
3B
100
AcDbScale
 70
     0
300
1:100
140
1.0
141
100.0
290
     0
  0
SCALE
  5
48
102
{ACAD_REACTORS
330
3B
102
}
330
3B
100
AcDbScale
 70
     0
300
2:1
140
2.0
141
1.0
290
     0
  0
SCALE
  5
49
102
{ACAD_REACTORS
330
3B
102
}
330
3B
100
AcDbScale
 70
     0
300
4:1
140
4.0
141
1.0
290
     0
  0
SCALE
  5
4A
102
{ACAD_REACTORS
330
3B
102
}
330
3B
100
AcDbScale
 70
     0
300
8:1
140
8.0
141
1.0
290
     0
  0
SCALE
  5
4B
102
{ACAD_REACTORS
330
3B
102
}
330
3B
100
AcDbScale
 70
     0
300
10:1
140
10.0
141
1.0
290
     0
  0
SCALE
  5
4C
102
{ACAD_REACTORS
330
3B
102
}
330
3B
100
AcDbScale
 70
     0
300
100:1
140
100.0
141
1.0
290
     0
  0
SCALE
  5
4D
102
{ACAD_REACTORS
330
3B
102
}
330
3B
100
AcDbScale
 70
     0
300
1/128" = 1'-0"
140
0.0078125
141
12.0
290
     0
  0
SCALE
  5
4E
102
{ACAD_REACTORS
330
3B
102
}
330
3B
100
AcDbScale
 70
     0
300
1/64" = 1'-0"
140
0.015625
141
12.0
290
     0
  0
SCALE
  5
4F
102
{ACAD_REACTORS
330
3B
102
}
330
3B
100
AcDbScale
 70
     0
300
1/32" = 1'-0"
140
0.03125
141
12.0
290
     0
  0
SCALE
  5
50
102
{ACAD_REACTORS
330
3B
102
}
330
3B
100
AcDbScale
 70
     0
300
1/16" = 1'-0"
140
0.0625
141
12.0
290
     0
  0
SCALE
  5
51
102
{ACAD_REACTORS
330
3B
102
}
330
3B
100
AcDbScale
 70
     0
300
3/32" = 1'-0"
140
0.09375
141
12.0
290
     0
  0
SCALE
  5
52
102
{ACAD_REACTORS
330
3B
102
}
330
3B
100
AcDbScale
 70
     0
300
1/8" = 1'-0"
140
0.125
141
12.0
290
     0
  0
SCALE
  5
53
102
{ACAD_REACTORS
330
3B
102
}
330
3B
100
AcDbScale
 70
     0
300
3/16" = 1'-0"
140
0.1875
141
12.0
290
     0
  0
SCALE
  5
54
102
{ACAD_REACTORS
330
3B
102
}
330
3B
100
AcDbScale
 70
     0
300
1/4" = 1'-0"
140
0.25
141
12.0
290
     0
  0
SCALE
  5
55
102
{ACAD_REACTORS
330
3B
102
}
330
3B
100
AcDbScale
 70
     0
300
3/8" = 1'-0"
140
0.375
141
12.0
290
     0
  0
SCALE
  5
56
102
{ACAD_REACTORS
330
3B
102
}
330
3B
100
AcDbScale
 70
     0
300
1/2" = 1'-0"
140
0.5
141
12.0
290
     0
  0
SCALE
  5
57
102
{ACAD_REACTORS
330
3B
102
}
330
3B
100
AcDbScale
 70
     0
300
3/4" = 1'-0"
140
0.75
141
12.0
290
     0
  0
SCALE
  5
58
102
{ACAD_REACTORS
330
3B
102
}
330
3B
100
AcDbScale
 70
     0
300
1" = 1'-0"
140
1.0
141
12.0
290
     0
  0
SCALE
  5
59
102
{ACAD_REACTORS
330
3B
102
}
330
3B
100
AcDbScale
 70
     0
300
1-1/2" = 1'-0"
140
1.5
141
12.0
290
     0
  0
SCALE
  5
5A
102
{ACAD_REACTORS
330
3B
102
}
330
3B
100
AcDbScale
 70
     0
300
3" = 1'-0"
140
3.0
141
12.0
290
     0
  0
SCALE
  5
5B
102
{ACAD_REACTORS
330
3B
102
}
330
3B
100
AcDbScale
 70
     0
300
6" = 1'-0"
140
6.0
141
12.0
290
     0
  0
SCALE
  5
5C
102
{ACAD_REACTORS
330
3B
102
}
330
3B
100
AcDbScale
 70
     0
300
1'-0" = 1'-0"
140
12.0
141
12.0
290
     0
  0
VISUALSTYLE
  5
2F
102
{ACAD_REACTORS
330
2A
102
}
330
2A
100
AcDbVisualStyle
  2
2dWireframe
 70
     4
 71
     0
 72
     2
 73
     0
 90
        0
 40
-0.6
 41
-30.0
 62
     5
 63
     7
421
 16777215
 74
     1
 91
        4
 64
     7
 65
   257
 75
     1
175
     1
 42
1.0
 92
        0
 66
   257
 43
1.0
 76
     1
 77
     6
 78
     2
 67
     7
 79
     5
170
     0
171
     0
290
     0
174
     0
 93
        1
 44
0.0
173
     0
291
     0
 45
0.0
  0
VISUALSTYLE
  5
31
102
{ACAD_REACTORS
330
2A
102
}
330
2A
100
AcDbVisualStyle
  2
3D Hidden
 70
     6
 71
     1
 72
     2
 73
     2
 90
        0
 40
-0.6
 41
-30.0
 62
     5
 63
     7
421
 16777215
 74
     2
 91
        2
 64
     7
 65
   257
 75
     2
175
     1
 42
40.0
 92
        0
 66
   257
 43
1.0
 76
     1
 77
     6
 78
     2
 67
     7
 79
     3
170
     0
171
     0
290
     0
174
     0
 93
        1
 44
0.0
173
     0
291
     0
 45
0.0
  0
VISUALSTYLE
  5
30
102
{ACAD_REACTORS
330
2A
102
}
330
2A
100
AcDbVisualStyle
  2
3dWireframe
 70
     5
 71
     0
 72
     2
 73
     0
 90
        0
 40
-0.6
 41
-30.0
 62
     5
 63
     7
421
 16777215
 74
     1
 91
        4
 64
     7
 65
   257
 75
     1
175
     1
 42
1.0
 92
        0
 66
   257
 43
1.0
 76
     1
 77
     6
 78
     2
 67
     7
 79
     5
170
     0
171
     0
290
     0
174
     0
 93
        1
 44
0.0
173
     0
291
     0
 45
0.0
  0
VISUALSTYLE
  5
32
102
{ACAD_REACTORS
330
2A
102
}
330
2A
100
AcDbVisualStyle
  2
Basic
 70
     7
 71
     1
 72
     0
 73
     1
 90
        0
 40
-0.6
 41
-30.0
 62
     5
 63
     7
421
 16777215
 74
     0
 91
        4
 64
     7
 65
   257
 75
     1
175
     1
 42
1.0
 92
        8
 66
     7
 43
1.0
 76
     1
 77
     6
 78
     2
 67
     7
 79
     5
170
     0
171
     0
290
     0
174
     0
 93
        1
 44
0.0
173
     0
291
     1
 45
0.0
  0
VISUALSTYLE
  5
36
102
{ACAD_REACTORS
330
2A
102
}
330
2A
100
AcDbVisualStyle
  2
Brighten
 70
    12
 71
     2
 72
     2
 73
     0
 90
        0
 40
-0.6
 41
-30.0
 62
     5
 63
     7
421
 16777215
 74
     1
 91
        4
 64
     7
 65
   257
 75
     1
175
     1
 42
1.0
 92
        8
 66
     7
 43
1.0
 76
     1
 77
     6
 78
     2
 67
     7
 79
     5
170
     0
171
     0
290
     0
174
     0
 93
        1
 44
50.0
173
     0
291
     1
 45
0.0
  0
VISUALSTYLE
  5
3A
102
{ACAD_REACTORS
330
2A
102
}
330
2A
100
AcDbVisualStyle
  2
ColorChange
 70
    16
 71
     2
 72
     2
 73
     3
 90
        0
 40
-0.6
 41
-30.0
 62
     5
 63
     8
421
  8421504
 74
     1
 91
        4
 64
     7
 65
   257
 75
     1
175
     1
 42
1.0
 92
        8
 66
     8
424
  8421504
 43
1.0
 76
     1
 77
     6
 78
     2
 67
     7
 79
     5
170
     0
171
     0
290
     0
174
     0
 93
        1
 44
0.0
173
     0
291
     1
 45
0.0
  0
VISUALSTYLE
  5
34
102
{ACAD_REACTORS
330
2A
102
}
330
2A
100
AcDbVisualStyle
  2
Conceptual
 70
     9
 71
     3
 72
     2
 73
     0
 90
        0
 40
-0.6
 41
-30.0
 62
     5
 63
     7
421
 16777215
 74
     2
 91
        2
 64
     7
 65
   257
 75
     1
175
     1
 42
40.0
 92
        8
 66
     7
 43
1.0
 76
     1
 77
     6
 78
     2
 67
     7
 79
     3
170
     0
171
     0
290
     0
174
     0
 93
        1
 44
0.0
173
     0
291
     0
 45
0.0
  0
VISUALSTYLE
  5
35
102
{ACAD_REACTORS
330
2A
102
}
330
2A
100
AcDbVisualStyle
  2
Dim
 70
    11
 71
     2
 72
     2
 73
     0
 90
        0
 40
-0.6
 41
-30.0
 62
     5
 63
     7
421
 16777215
 74
     1
 91
        4
 64
     7
 65
   257
 75
     1
175
     1
 42
1.0
 92
        8
 66
     7
 43
1.0
 76
     1
 77
     6
 78
     2
 67
     7
 79
     5
170
     0
171
     0
290
     0
174
     0
 93
        1
 44
-50.0
173
     0
291
     1
 45
0.0
  0
VISUALSTYLE
  5
39
102
{ACAD_REACTORS
330
2A
102
}
330
2A
100
AcDbVisualStyle
  2
Facepattern
 70
    15
 71
     2
 72
     2
 73
     0
 90
        0
 40
-0.6
 41
-30.0
 62
     5
 63
     7
421
 16777215
 74
     1
 91
        4
 64
     7
 65
   257
 75
     1
175
     1
 42
1.0
 92
        8
 66
     7
 43
1.0
 76
     1
 77
     6
 78
     2
 67
     7
 79
     5
170
     0
171
     0
290
     0
174
     0
 93
        1
 44
0.0
173
     0
291
     1
 45
0.0
  0
VISUALSTYLE
  5
2B
102
{ACAD_REACTORS
330
2A
102
}
330
2A
100
AcDbVisualStyle
  2
Flat
 70
     0
 71
     2
 72
     1
 73
     1
 90
        2
 40
-0.6
 41
30.0
 62
     5
 63
     7
421
 16777215
 74
     0
 91
        4
 64
     7
 65
   257
 75
     1
175
     1
 42
1.0
 92
        8
 66
     7
 43
1.0
 76
     1
 77
     6
 78
     2
 67
     7
 79
     5
170
     0
171
     0
290
     0
174
     0
 93
       13
 44
0.0
173
     0
291
     1
 45
0.0
  0
VISUALSTYLE
  5
2C
102
{ACAD_REACTORS
330
2A
102
}
330
2A
100
AcDbVisualStyle
  2
FlatWithEdges
 70
     1
 71
     2
 72
     1
 73
     1
 90
        2
 40
-0.6
 41
30.0
 62
     5
 63
     7
421
 16777215
 74
     1
 91
        4
 64
     7
 65
   257
 75
     1
175
     1
 42
1.0
 92
        0
 66
   257
 43
1.0
 76
     1
 77
     6
 78
     2
 67
     7
 79
     5
170
     0
171
     0
290
     0
174
     0
 93
       13
 44
0.0
173
     0
291
     1
 45
0.0
  0
VISUALSTYLE
  5
2D
102
{ACAD_REACTORS
330
2A
102
}
330
2A
100
AcDbVisualStyle
  2
Gouraud
 70
     2
 71
     2
 72
     2
 73
     1
 90
        2
 40
-0.6
 41
30.0
 62
     5
 63
     7
421
 16777215
 74
     0
 91
        4
 64
     7
 65
   257
 75
     1
175
     1
 42
1.0
 92
        0
 66
     7
 43
1.0
 76
     1
 77
     6
 78
     2
 67
     7
 79
     5
170
     0
171
     0
290
     0
174
     0
 93
       13
 44
0.0
173
     0
291
     1
 45
0.0
  0
VISUALSTYLE
  5
2E
102
{ACAD_REACTORS
330
2A
102
}
330
2A
100
AcDbVisualStyle
  2
GouraudWithEdges
 70
     3
 71
     2
 72
     2
 73
     1
 90
        2
 40
-0.6
 41
30.0
 62
     5
 63
     7
421
 16777215
 74
     1
 91
        4
 64
     7
 65
   257
 75
     1
175
     1
 42
1.0
 92
        0
 66
   257
 43
1.0
 76
     1
 77
     6
 78
     2
 67
     7
 79
     5
170
     0
171
     0
290
     0
174
     0
 93
       13
 44
0.0
173
     0
291
     1
 45
0.0
  0
VISUALSTYLE
  5
38
102
{ACAD_REACTORS
330
2A
102
}
330
2A
100
AcDbVisualStyle
  2
Linepattern
 70
    14
 71
     2
 72
     2
 73
     0
 90
        0
 40
-0.6
 41
-30.0
 62
     5
 63
     7
421
 16777215
 74
     1
 91
        4
 64
     7
 65
   257
 75
     7
175
     7
 42
1.0
 92
        8
 66
     7
 43
1.0
 76
     1
 77
     6
 78
     2
 67
     7
 79
     5
170
     0
171
     0
290
     0
174
     0
 93
        1
 44
0.0
173
     0
291
     1
 45
0.0
  0
VISUALSTYLE
  5
33
102
{ACAD_REACTORS
330
2A
102
}
330
2A
100
AcDbVisualStyle
  2
Realistic
 70
     8
 71
     2
 72
     2
 73
     0
 90
        0
 40
-0.6
 41
-30.0
 62
     5
 63
     7
421
 16777215
 74
     1
 91
        0
 64
     7
 65
   257
 75
     1
175
     1
 42
1.0
 92
        8
 66
     8
424
  7895160
 43
1.0
 76
     1
 77
     6
 78
     2
 67
     7
 79
     5
170
     0
171
     0
290
     0
174
     0
 93
       13
 44
0.0
173
     0
291
     0
 45
0.0
  0
VISUALSTYLE
  5
37
102
{ACAD_REACTORS
330
2A
102
}
330
2A
100
AcDbVisualStyle
  2
Thicken
 70
    13
 71
     2
 72
     2
 73
     0
 90
        0
 40
-0.6
 41
-30.0
 62
     5
 63
     7
421
 16777215
 74
     1
 91
        4
 64
     7
 65
   257
 75
     1
175
     1
 42
1.0
 92
       12
 66
     7
 43
1.0
 76
     1
 77
     6
 78
     2
 67
     7
 79
     5
170
     0
171
     0
290
     0
174
     0
 93
        1
 44
0.0
173
     0
291
     1
 45
0.0
  0
ENDSEC
  0
EOF
